<?xml version="1.0" encoding="utf-8"?>
<!-- Generator: Adobe Illustrator 25.2.1, SVG Export Plug-In . SVG Version: 6.00 Build 0)  -->
<svg version="1.1" xmlns="http://www.w3.org/2000/svg" xmlns:xlink="http://www.w3.org/1999/xlink" x="0px" y="0px"
	 viewBox="0 0 1040.9 163.1" style="enable-background:new 0 0 1040.9 163.1;" xml:space="preserve">
<style type="text/css">
	.st0{fill:#FFFFFF;}
	.st1{fill:#990000;}
	.st2{fill:#011F5B;}
	.st3{fill:#FFFFFF;stroke:#FFFFFF;stroke-width:3;stroke-miterlimit:10;}
	.st4{font-family:'Perpetua';}
	.st5{font-size:99.6415px;}
</style>
<g id="liblogo">
	<rect x="107.2" y="93.3" class="st0" width="458.2" height="1.6"/>
	<path class="st0" d="M97,21.1H0v48.4c-0.1,21.1,11.6,36.3,21.4,45.4c10.7,9.9,22.7,15.7,26.7,16.6l0.5,0.1l0.5-0.1
		c4-0.9,15.8-6.7,26.7-16.6c9.8-9.1,21.5-24.4,21.4-45.4L97,21.1"/>
	<path class="st1" d="M91,41.3L91,41.3c0.1,0.1,0.3,0.2,0.4,0.4c0.1,0.2,0.2,0.4,0.2,0.6c0,0.2-0.1,0.4-0.2,0.5
		c-0.1,0.2-0.3,0.3-0.4,0.4c-0.1,0.1-0.4,0.3-0.4,0.6v1.7H70.3v-1.7c0-0.3-0.2-0.5-0.4-0.6c-0.1-0.1-0.3-0.2-0.4-0.4
		c-0.1-0.2-0.2-0.4-0.2-0.6c0-0.2,0.1-0.4,0.2-0.6c0.1-0.2,0.3-0.3,0.4-0.4c0.1-0.1,0.4-0.3,0.4-0.6V35c0-0.3-0.2-0.5-0.4-0.6
		c-0.1-0.1-0.3-0.2-0.4-0.4c-0.1-0.2-0.2-0.4-0.2-0.6c0-0.2,0.1-0.4,0.2-0.6l0.4-0.4c0.2-0.2,0.4-0.3,0.4-0.6V30h0.3
		c1,0.1,2,0,3-0.4c0.3-0.1,0.6-0.3,0.9-0.5c0.7-0.5,1.5-0.8,2.4-0.8c0.8,0,1.6,0.2,2.3,0.6c0.4,0.2,0.8,0.3,1.3,0.4h0.1
		c0.5-0.1,0.9-0.2,1.3-0.4c0.7-0.3,1.5-0.6,2.3-0.6c0.9,0,1.7,0.3,2.4,0.8c0.3,0.2,0.6,0.4,0.9,0.5c1,0.3,2,0.4,3,0.4h0.3v1.8
		c0,0.3,0.2,0.5,0.4,0.6c0.1,0.1,0.3,0.2,0.4,0.4c0.1,0.2,0.2,0.4,0.2,0.6c0,0.2-0.1,0.4-0.2,0.6l-0.4,0.4c-0.2,0.2-0.4,0.3-0.4,0.6
		v5.6C90.6,40.9,90.8,41.2,91,41.3 M66.1,44.3c-1.2,1.6-2.9,2.7-4.8,3.2c-0.6,0.1-1.2,0.2-1.8,0.2c-3.2,0-6.1-1.4-9.1-2.9
		c-0.4-0.2-0.7-0.4-1.1-0.6c-1.9-1-4.6-2.5-6.8-2.5c-0.6,0-1.2,0.1-1.8,0.4h-0.1v0.1c0,0.3-0.1,0.5-0.2,0.8c-0.5,1-1.2,1.8-2.1,2.4
		c-1.4,1.1-3.1,1.8-4.9,1.9c-0.3,0-0.5,0-0.8-0.1c-0.3-0.1-0.7-0.3-0.9-0.6c-0.1-0.2-0.2-0.3-0.3-0.5c-0.1-0.1-0.1-0.3-0.1-0.5v-0.1
		h-0.1c-0.7-0.1-1.2-0.7-1.2-1.4c0-0.5,0.4-0.9,0.7-1.3c0.5-0.6,1-1.1,0.2-1.8l-0.2-0.2c-0.1-0.1-0.2-0.1-0.3-0.3
		c-0.6-0.7-0.3-2.1,0-3v-0.1c0.3-1,0.7-2,1.2-3c0.7-1.5,1.6-2.8,2.8-4h0.2c0.1,0.2,0.2,0.4,0.4,0.6l0.2,0.3l0.1-0.4
		c0.4-1,0.9-1.7,1.7-1.9c0.7-0.2,1.4-0.1,2,0.4l0.2,0.1l0.1-0.2c0.3-0.5,0.8-0.8,1.4-0.9c0.7,0,1.4,0.4,1.8,0.9l0.1,0.1l0.1-0.1
		c0.6-0.6,1.4-0.9,2.3-0.9c0.7,0.1,1.2,0.6,1.4,1.3l0.1,0.2l0.2-0.1c0.7-0.4,1.4-0.4,2.1,0c0.4,0.3,0.6,0.8,0.5,1.3v0.2h0.2
		c0.8-0.2,1.7,0,2.3,0.5c0.4,0.5,0.6,1.1,0.5,1.7v0.2h0.2c0.6-0.1,1.2,0.1,1.6,0.6c0.2,0.4,0.3,0.9,0.1,1.3l-0.1,0.2h0.2
		c0.4,0.1,0.8,0.3,1,0.7c0.1,0.5,0.1,1-0.1,1.5l-0.1,0.2l0.2,0.1c0.4,0.2,0.8,0.5,1,0.9c0.3,0.6,0.3,1.3,0,1.9v0.1l0.1,0.1
		c0.6,0.6,1.3,1.1,2,1.6c1.4,1,3.5,1.5,4.9,0.3c0.6-0.5,0.8-1.3,0.6-2c-0.1-0.6-0.6-1.1-1.2-1.3c-1.1-0.2-2,0.8-2.7,1.8h-0.1
		c-0.1,0-0.1,0-0.1-0.1c-0.6-1.2-0.7-2.6-0.1-3.8c0.6-0.9,1.5-1.5,2.6-1.6h0.2V36c-0.1-1.4,0.3-2.9,1.3-4c0.9-0.7,2.1-1,3.2-0.8h0.1
		v0.1c-1.2,2.9-0.9,4-0.3,6.4c0.1,0.2,0.1,0.5,0.2,0.7C67.4,40.4,67,42.5,66.1,44.3 M27.2,41.3L27.2,41.3c0.1,0.1,0.3,0.2,0.4,0.4
		c0.1,0.2,0.2,0.4,0.2,0.6c0,0.2-0.1,0.4-0.2,0.5c-0.1,0.2-0.3,0.3-0.4,0.4s-0.4,0.3-0.4,0.6v1.7H6.5v-1.7c0-0.3-0.2-0.5-0.4-0.6
		C6,43.1,5.8,43,5.7,42.8c-0.1-0.2-0.2-0.4-0.2-0.6c0-0.2,0.1-0.4,0.2-0.6c0.1-0.2,0.3-0.3,0.4-0.4c0.1-0.1,0.4-0.3,0.4-0.6V35
		c0-0.3-0.2-0.5-0.4-0.6C6,34.3,5.8,34.2,5.7,34c-0.1-0.2-0.2-0.4-0.2-0.6c0-0.2,0.1-0.4,0.2-0.6l0.4-0.4c0.2-0.2,0.4-0.3,0.4-0.6
		V30h0.3c1,0.1,2,0,3-0.4c0.3-0.1,0.6-0.3,0.9-0.5c0.7-0.5,1.5-0.8,2.4-0.8c0.8,0,1.6,0.2,2.3,0.6c0.4,0.2,0.8,0.3,1.3,0.4h0.1
		c0.5-0.1,0.9-0.2,1.3-0.4c0.7-0.3,1.5-0.6,2.3-0.6c0.9,0,1.7,0.3,2.4,0.8c0.3,0.2,0.6,0.4,0.9,0.5c1,0.3,2,0.4,3,0.4h0.3v1.8
		c0,0.3,0.2,0.5,0.4,0.6c0.1,0.1,0.3,0.2,0.4,0.4c0.1,0.2,0.2,0.4,0.2,0.6c0,0.2-0.1,0.4-0.2,0.6l-0.4,0.4c-0.2,0.2-0.4,0.3-0.4,0.6
		v5.6C26.8,40.9,26.9,41.2,27.2,41.3 M2.5,23.7c0,0,0.1,28.1,0,28h92.1v-28H2.5z"/>
	<path class="st2" d="M34.2,40.1c0.3,0,0.6,0.1,0.9,0.3c0.1,0.1,0.2,0.2,0.3,0.2c0.2,0.2,0.2,0.5,0,0.7c0,0,0,0,0,0
		c-0.2,0.2-0.5,0.4-0.6,0.5c-0.4,0.3-1,0.7-1.5,0.4c-0.2-0.2,0.2-0.5,0-1.3C33.1,40.4,33.7,40.1,34.2,40.1"/>
	<path class="st2" d="M34.3,31c-1,1.1-1.8,2.3-2.4,3.7c-0.5,0.9-0.8,1.9-1.1,2.9v0.1c-0.2,0.7-0.5,2.1-0.1,2.6
		c0.1,0.1,0.2,0.1,0.2,0.2c0,0.1,0.2,0.1,0.3,0.2c1,1,0.3,1.8-0.2,2.4c-0.3,0.4-0.6,0.7-0.6,1c0,0.7,0.9,1,1.1,1s0.2,0.1,0.2,0.3
		c0,0.2,0,0.3,0.1,0.5c0.1,0.1,0.1,0.3,0.2,0.4c0.2,0.2,0.4,0.4,0.7,0.5c0.2,0.1,0.5,0.1,0.7,0.1c1.7-0.1,3.3-0.7,4.7-1.8
		c0.8-0.5,1.5-1.3,2-2.2c0.1-0.2,0.1-0.4,0.1-0.6l-1.3-0.2l0,0c-0.1,0-0.2-0.1-0.3-0.3c0-0.3,0.2-0.4,0.7-0.7
		c0.1-0.1,0.3-0.2,0.4-0.3c0.7-0.5,1.3-0.9,1.6-1.1c-0.4-0.4-0.7-0.8-0.9-1.3c-0.2-0.2-0.3-0.5-0.5-0.7c-0.7-0.8-1.9-1-2.8-0.5
		c-0.4,0.2-0.8,0.5-1.1,0.8c-0.3,0.3-0.6,0.5-0.9,0.7c-0.1,0.1-0.3,0.1-0.4,0c0,0,0,0,0-0.1c-0.1-0.1-0.1-0.3,0-0.4l0.1-0.1
		c0.4-0.4,1.4-1.4,1.4-2C36.3,34.4,34.8,31.9,34.3,31 M42.6,41.2c2.3,0,4.9,1.4,7,2.6c0.4,0.2,0.7,0.4,1.1,0.6
		c3.5,1.8,7,3.4,10.6,2.7c1.8-0.4,3.4-1.5,4.5-3c0.9-1.7,1.1-3.7,0.5-5.5c-0.1-0.2-0.1-0.5-0.2-0.7c-0.6-2.3-1-3.5,0.1-6.3
		c-0.9-0.1-1.8,0.2-2.5,0.7c-0.9,1.1-1.3,2.5-1.2,3.9c0,0.1-0.1,0.3-0.2,0.3c0,0,0,0-0.1,0c-1,0-2,0.6-2.6,1.4
		c-0.4,0.9-0.5,2-0.1,2.9c0.6-0.8,1.5-1.8,2.8-1.5c0.8,0.2,1.4,0.8,1.5,1.6c0.2,0.9-0.1,1.8-0.7,2.5c-1.6,1.3-3.9,0.8-5.4-0.3
		c-1.9-1.4-3.7-3.1-5.3-4.9c-0.3-0.4-0.6-0.7-0.9-1.1c-1.1-1.4-2.4-2.7-3.8-3.8c-1.9-1.4-4.2-2.1-6.6-1.9c-1.9,0-3.7,0.5-5.4,1.4
		c0.5,1,0.9,2.1,1,3.2c0,0.2,0,0.3-0.1,0.5c1.2-0.6,2.6-0.3,3.4,0.7c0.2,0.2,0.4,0.5,0.6,0.8c0.3,0.5,0.7,1,1.1,1.4
		c0.1,0.1,0.1,0.1,0.1,0.2c0,0.1,0,0.1-0.1,0.2c-0.6,0.4-1.2,0.8-1.8,1.3c-0.1,0.1-0.3,0.2-0.4,0.3c-0.1,0-0.1,0-0.1,0.1l0.9,0.2
		C41.1,41.3,41.8,41.2,42.6,41.2 M59.5,47.8c-3.2,0-6.2-1.4-9.2-3c-0.4-0.2-0.7-0.4-1.1-0.6c-2.4-1.3-6.1-3.3-8.5-2.1
		c0,0.3-0.1,0.6-0.2,0.9c-0.5,1-1.3,1.8-2.2,2.5c-1.4,1.2-3.2,1.8-5,1.9c-0.3,0-0.6,0-0.9-0.1c-0.4-0.1-0.7-0.4-1-0.7
		c-0.1-0.2-0.2-0.3-0.3-0.5c-0.1-0.2-0.1-0.3-0.1-0.5c-0.9-0.3-1.4-0.8-1.4-1.5c0.1-0.5,0.3-1,0.7-1.4c0.6-0.7,0.8-1,0.3-1.6
		l-0.2-0.2l-0.3-0.3c-0.7-0.8-0.3-2.3-0.1-3.1v-0.1c0.3-1,0.7-2,1.2-3c0.6-1.6,1.6-3,2.9-4.1c0.1-0.1,0.1-0.1,0.2-0.1
		c0.1,0,0.1,0,0.2,0.1c0,0,0.5,0.8,1.1,1.8c1.7-0.9,3.6-1.4,5.6-1.5c2.5-0.2,5,0.5,7,2c1.4,1.1,2.7,2.4,3.8,3.9
		c0.3,0.4,0.6,0.7,0.9,1.1c1.6,1.8,3.3,3.4,5.2,4.9c1.3,1,3.3,1.5,4.7,0.3c0.5-0.5,0.7-1.2,0.6-1.9c-0.1-0.6-0.5-1-1.1-1.2
		c-1-0.2-1.8,0.8-2.5,1.8c-0.1,0.1-0.2,0.1-0.3,0.1c-0.1,0-0.2-0.1-0.2-0.2c-0.7-1.2-0.7-2.7-0.1-4c0.6-0.9,1.6-1.6,2.7-1.7
		c0-1.9,0.4-3.3,1.4-4.1c0.9-0.8,2.1-1.1,3.3-0.8c0.1,0,0.1,0,0.2,0.1c0.1,0.1,0.1,0.2,0,0.3c0,0,0,0,0,0c-1.2,2.9-0.9,4-0.3,6.3
		c0.1,0.2,0.1,0.5,0.2,0.7c0.6,2,0.4,4.1-0.6,5.9c-1.6,2.6-4.8,3.2-4.9,3.3C60.7,47.7,60.1,47.8,59.5,47.8"/>
	<path class="st2" d="M32.3,45.8h-0.9c-0.2,0-0.3-0.1-0.3-0.3s0.1-0.3,0.3-0.3c1.9,0.3,3.7-0.4,5-1.8c0.1-0.1,0.3-0.1,0.4,0
		s0.1,0.3,0,0.4C35.7,45.1,34,45.8,32.3,45.8"/>
	<path class="st2" d="M55.8,41.4L55.8,41.4c-0.2-0.1-0.3-0.2-0.2-0.4c0.3-0.7,0.4-1.3,0.1-1.7c-0.2-0.4-0.6-0.7-1-0.8
		c-0.1,0-0.1-0.1-0.2-0.1v-0.2c0.2-0.5,0.2-1,0.2-1.5c-0.1-0.4-0.8-0.5-1-0.5c-0.1,0-0.1,0-0.2-0.1c0-0.1-0.1-0.2,0-0.3
		c0.1-0.1,0.3-0.9,0.1-1.2c-0.4-0.7-1.6-0.3-1.6-0.3c-0.2,0-0.4-0.1-0.4-0.3c0,0,0-0.1,0-0.1c0.2-0.6,0.1-1.2-0.3-1.7
		c-0.8-0.8-2.4-0.3-2.4-0.3c-0.2,0-0.4-0.1-0.4-0.3c0,0,0-0.1,0-0.1c0,0,0.3-0.9-0.3-1.3c-0.6-0.3-1.4-0.2-2,0.2
		c-0.1,0.1-0.2,0.1-0.3,0c0,0,0,0,0,0c-0.1,0-0.1-0.1-0.2-0.2c-0.1-0.1-0.2-1.2-1.1-1.3c-0.8,0-1.6,0.4-2.2,1
		C42.4,30,42.4,30,42.3,30c-0.1,0-0.1,0-0.2-0.1c-0.1-0.1-0.8-1-1.7-0.9c-0.9,0.1-1.3,1-1.3,1s-0.1,0.1-0.2,0.2
		c-0.1,0-0.2,0-0.3-0.1c0,0-0.9-0.9-1.8-0.5c-1.2,0.4-1.5,1.9-1.6,2.3l0,0c0,0.1-0.2,0.2-0.3,0.2c-0.1,0-0.2-0.2-0.2-0.3l0,0
		c0.1-0.5,0.5-2.2,1.9-2.7c0.7-0.2,1.5-0.1,2.1,0.4c0.3-0.6,0.9-1,1.6-1c0.7,0.1,1.4,0.4,2,0.9c0.6-0.6,1.5-1,2.4-0.9
		c0.8,0.1,1.4,0.6,1.5,1.4c0.7-0.4,1.5-0.4,2.2,0c0.5,0.3,0.7,0.9,0.6,1.5c0.9-0.2,1.8,0,2.5,0.5c0.5,0.5,0.6,1.1,0.5,1.8
		c0.7-0.1,1.3,0.1,1.8,0.6c0.2,0.4,0.3,0.9,0.1,1.4c0.5,0.1,0.9,0.4,1.1,0.8c0.1,0.5,0.1,1.1-0.1,1.6c0.5,0.2,0.9,0.5,1.1,1
		C56.2,39.8,56.2,40.6,55.8,41.4C56,41.3,55.9,41.4,55.8,41.4"/>
	<path class="st2" d="M54.4,45.2L54.4,45.2c-0.2,0-0.3-0.1-0.3-0.3c0.1-1-0.5-1.2-1-1.4c-0.1,0-0.3-0.1-0.4-0.1
		c-0.3-0.2-0.3-0.5-0.3-0.9c0-0.4-0.1-0.8-0.3-1.2c-0.5-0.6-1.5-0.2-1.5-0.2h-0.3c-0.1-0.1-0.1-0.2-0.1-0.3c0.1-0.6-0.1-1.2-0.5-1.7
		c-0.6-0.4-1.2-0.5-1.9-0.3c-0.1,0-0.2,0-0.2-0.1s-0.1-0.1-0.1-0.2c0.1-0.6-0.2-1.3-0.8-1.6c-0.4-0.3-0.9-0.3-1.4-0.1
		c-1.2,0.6-1.6,0.7-2.8-0.2c-0.3-0.3-0.7-0.4-1.1-0.3c-0.6,0.2-1,0.6-1.2,1.2c-0.1,0.1-0.2,0.2-0.4,0.1s-0.2-0.2-0.1-0.4
		c0.3-0.7,0.9-1.3,1.6-1.5c0.6-0.1,1.1,0,1.6,0.4c1,0.7,1.3,0.7,2.2,0.2c0.6-0.3,1.4-0.3,2,0.1c0.6,0.4,1,1.1,1,1.8
		c0.7-0.1,1.5,0,2.1,0.4c0.5,0.5,0.7,1.1,0.7,1.8c0.6-0.2,1.3,0,1.7,0.5c0.3,0.5,0.5,1,0.5,1.5v0.4c0.1,0,0.1,0.1,0.3,0.1
		c0.9,0.2,1.6,1,1.4,2c0,0,0,0,0,0C54.7,45.1,54.6,45.2,54.4,45.2"/>
	<path class="st2" d="M27.4,42.3c0,0.1,0,0.2-0.1,0.3L27,42.9c-0.3,0.2-0.6,0.5-0.6,0.9v1.3H6.9v-1.3c0-0.4-0.2-0.7-0.6-0.9
		C6.2,42.8,6,42.7,6,42.6c-0.1-0.1-0.1-0.2-0.1-0.3l0,0c0-0.1,0-0.2,0.1-0.3l0.3-0.3c0.3-0.2,0.6-0.5,0.6-0.9v-5.6
		c0-0.4-0.2-0.7-0.6-0.9C6.2,34.2,6,34.1,6,34c-0.1-0.1-0.1-0.2-0.1-0.3l0,0c0-0.1,0-0.2,0.1-0.3l0.3-0.3c0.3-0.2,0.6-0.5,0.6-0.9
		v-1.3h1.5v12.9h7.2c0.1,0.5,0.6,0.9,1.2,0.9c0.5,0,1-0.4,1.2-0.9H25V30.9h1.5v1.3c0,0.4,0.2,0.7,0.6,0.9l0.3,0.3
		c0.1,0.1,0.1,0.2,0.1,0.3l0,0c0,0.1,0,0.2-0.1,0.3l-0.3,0.3c-0.3,0.2-0.6,0.5-0.6,0.9v5.6c0,0.4,0.2,0.7,0.6,0.9l0.3,0.3
		C27.5,42.1,27.4,42.2,27.4,42.3z M9.8,30.3c0.3-0.1,0.6-0.3,0.9-0.5c0.6-0.5,1.4-0.8,2.2-0.8c0.8,0,1.5,0.2,2.2,0.6
		c0.4,0.2,0.8,0.3,1.3,0.4v11.3h-0.1c-0.8,0.1-1.5,0.3-2.2,0.6l-0.9,0.3c-0.8,0.2-1.7,0.3-2.6,0.3c-0.5,0-1.1,0-1.6,0.1V30.7
		C9.2,30.5,9.5,30.4,9.8,30.3 M18.1,29.5c0.7-0.3,1.4-0.6,2.2-0.6c0.8,0,1.5,0.3,2.1,0.8c0.3,0.2,0.6,0.4,0.9,0.5l0.9,0.3v11.9
		c-0.5-0.1-1.1-0.1-1.6-0.1c-0.9,0.1-1.7,0-2.6-0.3l-0.9-0.3c-0.7-0.2-1.4-0.4-2.2-0.6l0,0V29.8C17.3,29.9,17.8,29.8,18.1,29.5
		 M27.3,41.2c-0.2-0.2-0.4-0.3-0.4-0.5v-5.6c0-0.2,0.1-0.3,0.4-0.5c0.1-0.1,0.3-0.2,0.4-0.4c0.1-0.2,0.2-0.5,0.2-0.7
		c0-0.2-0.1-0.5-0.2-0.7c-0.1-0.2-0.3-0.3-0.4-0.4c-0.1-0.1-0.4-0.3-0.4-0.5v-2h-0.4c-1,0.1-1.9,0-2.9-0.3c-0.3-0.1-0.6-0.3-0.8-0.5
		c-0.7-0.5-1.6-0.9-2.5-0.9c-0.8,0-1.6,0.2-2.4,0.6c-0.4,0.2-0.8,0.3-1.2,0.4h-0.2c-0.4-0.1-0.8-0.2-1.2-0.4
		c-0.7-0.4-1.6-0.6-2.4-0.6c-0.9,0.1-1.8,0.4-2.5,0.9c-0.3,0.2-0.5,0.3-0.8,0.5c-0.9,0.3-1.9,0.4-2.9,0.3H6.4v2
		c0,0.2-0.1,0.3-0.4,0.5l-0.4,0.4c-0.1,0.2-0.2,0.5-0.2,0.7c0,0.2,0.1,0.5,0.2,0.7c0.1,0.2,0.3,0.3,0.4,0.4c0.1,0.1,0.4,0.3,0.4,0.5
		v5.6c0,0.2-0.1,0.3-0.4,0.5l-0.4,0.4c-0.1,0.2-0.2,0.5-0.2,0.7c0,0.2,0.1,0.5,0.2,0.7c0.1,0.2,0.3,0.3,0.4,0.4s0.4,0.3,0.4,0.5v1.9
		h20.7v-1.9c0-0.2,0.1-0.3,0.4-0.5l0.4-0.4c0.1-0.2,0.2-0.5,0.2-0.7c0-0.2-0.1-0.5-0.2-0.7C27.7,41.4,27.5,41.3,27.3,41.2"/>
	<path class="st2" d="M91.1,42.3c0,0.1,0,0.2-0.1,0.3l-0.3,0.3c-0.3,0.2-0.6,0.5-0.6,0.9v1.3H70.6v-1.3c0-0.4-0.2-0.7-0.6-0.9
		l-0.3-0.3c-0.1-0.1-0.1-0.2-0.1-0.3l0,0c0-0.1,0-0.2,0.1-0.3l0.3-0.3c0.3-0.2,0.6-0.5,0.6-0.9v-5.6c0-0.4-0.2-0.7-0.6-0.9L69.7,34
		c-0.1-0.1-0.1-0.2-0.1-0.3l0,0c0-0.1,0-0.2,0.1-0.3l0.3-0.3c0.3-0.2,0.6-0.5,0.6-0.9v-1.3h1.5v12.9h7.2c0.1,0.5,0.6,0.9,1.2,0.9
		c0.5,0,1-0.4,1.1-0.9h7.2V30.9h1.5v1.3c0,0.4,0.2,0.7,0.6,0.9l0.3,0.3c0.1,0.1,0.1,0.2,0.1,0.3l0,0c0,0.1,0,0.2-0.1,0.3l-0.3,0.3
		c-0.3,0.2-0.6,0.5-0.6,0.9v5.6c0,0.4,0.2,0.7,0.6,0.9l0.3,0.3C91.2,42,91.2,42.2,91.1,42.3C91.2,42.3,91.1,42.3,91.1,42.3z
		 M73.6,30.3c0.3-0.1,0.6-0.3,0.9-0.5c0.6-0.5,1.3-0.8,2.1-0.8c0.8,0,1.5,0.2,2.2,0.6c0.4,0.2,0.8,0.3,1.3,0.4v11.3H80
		c-0.8,0.1-1.5,0.3-2.2,0.6l-0.9,0.3c-0.8,0.2-1.7,0.3-2.6,0.3c-0.5,0-1.1,0-1.6,0.1V30.7C73,30.6,73.3,30.4,73.6,30.3 M82,29.5
		c0.7-0.3,1.4-0.6,2.2-0.6c0.8,0,1.5,0.3,2.1,0.8c0.3,0.2,0.6,0.4,0.9,0.5l0.9,0.3v11.9c-0.5-0.1-1.1-0.1-1.6-0.1
		c-0.9,0.1-1.7,0-2.6-0.3L83,41.8c-0.7-0.2-1.4-0.4-2.2-0.6l0,0V29.8C81.1,29.9,81.5,29.7,82,29.5 M91.1,41.2
		c-0.2-0.2-0.4-0.3-0.4-0.5v-5.6c0-0.2,0.1-0.3,0.4-0.5c0.1-0.1,0.3-0.2,0.4-0.4c0.1-0.2,0.2-0.5,0.2-0.7c0-0.2-0.1-0.5-0.2-0.7
		c-0.1-0.2-0.3-0.3-0.4-0.4c-0.1-0.1-0.4-0.3-0.4-0.5v-2h-0.4c-1,0.1-1.9,0-2.9-0.3c-0.3-0.1-0.6-0.3-0.8-0.5
		c-0.7-0.5-1.6-0.9-2.5-0.9c-0.8,0-1.6,0.2-2.4,0.6c-0.4,0.2-0.8,0.3-1.2,0.4h-0.2c-0.4-0.1-0.8-0.2-1.2-0.4
		c-0.7-0.4-1.6-0.6-2.4-0.6c-0.9,0-1.8,0.3-2.5,0.9c-0.3,0.2-0.5,0.3-0.8,0.5c-0.9,0.3-1.9,0.4-2.9,0.3h-0.4v2
		c0,0.2-0.1,0.3-0.4,0.5l-0.4,0.4c-0.1,0.2-0.2,0.5-0.2,0.7c0,0.2,0.1,0.5,0.2,0.7c0.1,0.2,0.3,0.3,0.4,0.4c0.1,0.1,0.4,0.3,0.4,0.5
		v5.6c0,0.2-0.1,0.3-0.4,0.5l-0.4,0.4c-0.1,0.2-0.2,0.5-0.2,0.7c0,0.2,0.1,0.5,0.2,0.7c0.1,0.2,0.3,0.3,0.4,0.4s0.4,0.3,0.4,0.5v1.9
		h20.7v-1.9c0-0.2,0.1-0.3,0.4-0.5l0.4-0.4c0.1-0.2,0.2-0.5,0.2-0.7c0-0.2-0.1-0.5-0.2-0.7C91.5,41.5,91.3,41.3,91.1,41.2"/>
	<path class="st2" d="M88.6,92.2L48.5,53.4L8.3,92.2c-3.4-7.1-5.2-14.9-5.2-22.8V52.2h90.7v17.2C93.9,77.3,92.1,85.1,88.6,92.2
		 M75.8,96.3c-3.2,3.1-8.2,3.1-11.3,0c-3.1-3.1-3.1-8.2,0-11.3c0,0,0,0,0,0c3.2-3.1,8.2-3.1,11.3,0C78.9,88,79,93.1,75.8,96.3
		C75.9,96.2,75.8,96.3,75.8,96.3 M40.5,70.8c0-4.4,3.6-8,8-8s8,3.6,8,8s-3.6,8-8,8S40.5,75.2,40.5,70.8 M73.4,112.5
		c-10.7,10-22,15-25,15.8c-3-0.8-14.2-5.8-25-15.8l-0.8-0.8l25.8-27.4l25.8,27.4C74,112,73.7,112.3,73.4,112.5 M21.1,96.3
		c-3.1-3.1-3.1-8.2,0-11.3s8.2-3.1,11.3,0l0,0c3.1,3.1,3.1,8.2,0,11.3C29.3,99.4,24.2,99.4,21.1,96.3 M93.8,50.9H3.1V24.2h90.7V50.9
		z M95.1,22.9H1.8v46.5C1.7,89.7,13,104.6,22.6,113.4c10.3,9.7,22.1,15.3,25.8,16.2h0.2c3.7-0.8,15.3-6.6,25.8-16.2
		c9.6-8.9,20.9-23.7,20.8-44.1V22.9z"/>
	<path class="st0" d="M113.2,120.3c0,4.6,1.3,8.1,6.2,8.1c4.5,0,6.9-3,6.9-8.3v-9.2c0-0.6-0.1-1.2-0.2-1.8c-0.2-1.2-1.3-1.6-2.8-1.8
		v-0.9h7.8v0.9c-1.6,0.2-2.7,0.6-2.8,1.8c-0.1,0.6-0.2,1.2-0.2,1.8v9.3c0,7.1-4.5,9.7-8.8,9.7c-7,0-9.2-3.6-9.2-9.5v-9.8
		c0-3.1,0.1-2.9-2.8-3.3v-0.9h8.9v0.9c-3,0.4-2.8,0.2-2.8,3.3L113.2,120.3z"/>
	<path class="st0" d="M149.5,129.6c-4-4.8-8.2-9.8-12.3-14.6v11.2c0,0.5,0.1,0.9,0.2,1.4c0.1,0.9,1,1.3,2.7,1.4v0.7h-6.3V129
		c1.2-0.1,2.1-0.5,2.2-1.4c0-0.4,0.1-0.8,0.1-1.4v-11.9c-0.6-1-1.8-1.7-3-1.7v-0.7h4.6l11.4,13.8l0,0v-10.4c0-0.5-0.1-1-0.1-1.4
		c-0.1-0.9-1-1.3-2.7-1.4v-0.7h6.3v0.7c-1.2,0.1-2.1,0.5-2.2,1.4c0,0.4-0.1,0.8-0.1,1.4v14.3H149.5z"/>
	<path class="st0" d="M162.1,126.4c0,2.4-0.1,2.2,2.2,2.5v0.7h-6.9v-0.7c2.3-0.3,2.2-0.1,2.2-2.5V115c0-2.4,0.1-2.2-2.2-2.5v-0.7
		h6.9v0.7c-2.3,0.3-2.2,0.1-2.2,2.5V126.4z"/>
	<path class="st0" d="M175.2,112.5c-1.4,0-2.4,0.4-1.6,2.9c1,3,2.5,7.4,3.8,11.2l4.8-11.6c0.6-1.6,0-2.4-1.8-2.4v-0.7h5.5v0.7
		c-0.9,0-1.8,0.6-2.1,1.5c-2.1,5.2-4.3,10.3-6.4,15.5h-1.3c-1.5-4.4-3.3-9.3-4.8-13.5c-0.9-2.7-1.7-3.5-3-3.5v-0.7h6.9L175.2,112.5
		L175.2,112.5z"/>
	<path class="st0" d="M189.8,128.9c2.3-0.3,2.2-0.1,2.2-2.5V115c0-2.4,0.1-2.3-2.2-2.5v-0.7h11.3v4.1h-0.7c-0.3-1.9-0.8-3.3-2.6-3.3
		h-3.4v7.3h2.1c1.6,0,2.3-0.6,2.3-2.2h0.7v5.4h-0.7c0-1.5-0.6-2.4-2.3-2.4h-2.1v5.8c0,2.2,1,2.4,3.3,2.4c3.7,0,3.5-1,4.7-3.8h0.7
		l-0.8,4.6h-12.4L189.8,128.9L189.8,128.9z"/>
	<path class="st0" d="M212,120.9h2.1c2.2,0,3.2-1.7,3.2-4.5s-1.5-3.8-3.4-3.8h-2L212,120.9L212,120.9z M207.4,111.8h7.4
		c2.6,0,5.1,1.4,5.1,4.3c0,2.3-1.4,4.4-3.6,5.2l2.5,3.8c1,1.6,2.2,3,3.6,4.2v0.3h-2.6c-1.5,0-2.3-2.8-5.4-7.9H212v4.7
		c0,2.4-0.1,2.2,2.2,2.5v0.7h-6.8v-0.7c2.3-0.3,2.2-0.1,2.2-2.5v-11.4c0-2.4,0.1-2.2-2.2-2.5V111.8z"/>
	<path class="st0" d="M235.2,115.6c-0.2-1.8-1.2-3.2-3.2-3.2c-1.4-0.2-2.6,0.8-2.8,2.2c0,0.1,0,0.3,0,0.4c0,1.8,1.8,2.9,4.3,4.8
		c2.7,2,3.6,3.3,3.6,5.4c0,3-3.1,4.7-6.2,4.7c-1.5,0-3-0.3-4.4-0.8c-0.1,0-0.2-0.1-0.2-0.4V125h0.7c0.3,2.8,2.1,4,4.1,4
		c1.8,0,3.2-1.4,3.3-3.2c0,0,0,0,0,0c0-1.6-0.9-3-4.7-5.5c-1.4-0.9-3.1-1.9-3.1-4.7c0-2.3,2.5-4.1,5.5-4.1c1.2,0,2.4,0.1,3.6,0.5
		c0.2,0,0.2,0.1,0.2,0.3v3.4L235.2,115.6L235.2,115.6z"/>
	<path class="st0" d="M247,126.4c0,2.4-0.1,2.2,2.2,2.5v0.7h-6.9v-0.7c2.3-0.3,2.2-0.1,2.2-2.5V115c0-2.4,0.1-2.2-2.2-2.5v-0.7h6.9
		v0.7c-2.3,0.3-2.2,0.1-2.2,2.5V126.4z"/>
	<path class="st0" d="M262.2,126.4c0,2.4-0.1,2.2,2.2,2.5v0.7h-6.9v-0.7c2.3-0.3,2.2-0.1,2.2-2.5v-13.7h-2.3c-2.2,0-2.7,1.4-3.6,3.1
		h-0.6l0.7-3.9h14l0.7,3.9H268c-0.8-1.7-1.3-3.1-3.6-3.1h-2.3V126.4z"/>
	<path class="st0" d="M276,128.9c2.3-0.3,2.2-0.1,2.2-2.5v-3.9l-3.9-7.8c-0.8-1.7-1.5-2.3-2.7-2.3v-0.7h6.5v0.7
		c-1.9,0-1.8,1-1.1,2.3l3.1,6.4l3.5-6.4c0.9-1.6,0-2.3-1.5-2.3v-0.7h5.3v0.7c-0.7,0-1.4,0.3-2.1,1.5l-4.3,7.7
		c-0.3,0.6-0.4,1.2-0.3,1.9v2.9c0,2.4-0.1,2.2,2.2,2.5v0.7H276L276,128.9L276,128.9z"/>
	<path class="st0" d="M311.7,117.1c0-3.4-2.1-3.6-2.6-3.6c-3.6,0-5.9,6.4-5.9,10.6c0,1.7,0.3,4.8,2.7,4.8
		C309.7,128.9,311.7,122.9,311.7,117.1 M300.2,123.5c0-4.3,3.7-10.7,9.2-10.7c4.4,0,5.4,3,5.4,6c0,3.6-2.9,11.3-9.2,11.3
		C301.4,129.9,300.2,126.6,300.2,123.5"/>
	<path class="st0" d="M330,113.8l-0.8,0.7h-4.3c-1.6,7.9-3.6,15.6-6.1,23.3h-1.5l4.7-23.3h-3.2l0.3-1.4h3.1c1.7-7,7.6-7.8,8.9-7.8
		c0.8,0,2.4,0.1,2.9,0.6l-0.4,2.2l-0.8,0.4c-0.6-1.1-1.7-1.8-2.9-1.9c-2,0-3.5,1.4-4.3,4.9l-0.4,1.6h4.9L330,113.8z"/>
	<path class="st0" d="M349.7,125.5c0,3.1-0.1,2.9,2.8,3.3v0.9h-8.8v-0.9c3-0.4,2.8-0.2,2.8-3.3v-14.8c0-3.1,0.1-2.9-2.8-3.3v-0.9
		h8.6c5.5,0,8.2,2.2,8.2,6.1c0,4.8-4.3,7.3-9.4,7v-0.6c4.1,0.1,6-2.4,6-6s-1.8-5.4-5.5-5.4h-2L349.7,125.5L349.7,125.5z"/>
	<path class="st0" d="M365,128.9c2.3-0.3,2.2-0.1,2.2-2.5V115c0-2.4,0.1-2.3-2.2-2.5v-0.7h11.3v4.1h-0.6c-0.3-1.9-0.8-3.3-2.6-3.3
		h-3.5v7.3h2.1c1.6,0,2.3-0.6,2.3-2.2h0.7v5.4h-0.7c0-1.5-0.6-2.4-2.3-2.4h-2.1v5.8c0,2.2,1,2.4,3.3,2.4c3.7,0,3.5-1,4.7-3.8h0.7
		l-0.8,4.6h-12.4C365.1,129.6,365,128.9,365,128.9z"/>
	<path class="st0" d="M398,129.6c-4-4.8-8.3-9.8-12.3-14.6v11.2c0,0.5,0.1,1,0.1,1.4c0.1,0.9,1,1.3,2.7,1.4v0.7h-6.2V129
		c1.2-0.1,2.1-0.5,2.2-1.4c0.1-0.5,0.2-0.9,0.2-1.4v-11.9c-0.6-1-1.8-1.7-3-1.7v-0.7h4.6c3.8,4.6,7.8,9.3,11.4,13.8l0,0v-10.4
		c0-0.5-0.1-1-0.1-1.4c-0.1-0.9-1-1.3-2.7-1.4v-0.7h6.2v0.7c-1.2,0.1-2.1,0.5-2.2,1.4c0,0.4-0.2,0.8-0.2,1.4v14.3H398z"/>
	<path class="st0" d="M421.1,129.6c-4-4.8-8.3-9.8-12.3-14.6v11.2c0,0.5,0.1,0.9,0.2,1.4c0.1,0.9,1,1.3,2.7,1.4v0.7h-6.2V129
		c1.2-0.1,2.1-0.5,2.2-1.4c0-0.4,0.2-0.8,0.2-1.4v-11.9c-0.6-1-1.8-1.7-3-1.7v-0.7h4.6c3.8,4.6,7.8,9.3,11.4,13.8l0,0v-10.4
		c0-0.5-0.1-1-0.1-1.4c-0.1-0.9-1-1.3-2.7-1.4v-0.7h6.3v0.7c-1.2,0.1-2.1,0.5-2.2,1.4c-0.1,0.5-0.2,0.9-0.2,1.4v14.3H421.1z"/>
	<path class="st0" d="M437.6,115.6c-0.2-1.8-1.2-3.2-3.2-3.2c-1.4-0.2-2.6,0.8-2.8,2.2c0,0.1,0,0.3,0,0.4c0,1.8,1.8,2.9,4.3,4.8
		c2.7,2,3.6,3.3,3.6,5.4c0,3-3.1,4.7-6.2,4.7c-1.5,0-3-0.3-4.4-0.8c-0.1,0-0.2-0.1-0.2-0.4V125h0.7c0.3,2.8,2.1,4,4.1,4
		c1.8,0,3.2-1.4,3.3-3.2c0,0,0,0,0,0c0-1.6-0.9-3-4.7-5.5c-1.4-0.9-3.1-1.9-3.1-4.7c0-2.3,2.5-4.1,5.5-4.1c1.2,0,2.4,0.1,3.5,0.5
		c0.2,0,0.2,0.1,0.2,0.3v3.4L437.6,115.6L437.6,115.6z"/>
	<path class="st0" d="M447.8,128.9c2.3-0.3,2.2-0.1,2.2-2.5v-3.9l-3.9-7.8c-0.8-1.7-1.6-2.3-2.7-2.3v-0.7h6.5v0.7
		c-1.9,0-1.7,1-1.1,2.3l3.1,6.4l3.5-6.4c0.9-1.6,0.1-2.3-1.4-2.3v-0.7h5.2v0.7c-0.7,0-1.4,0.3-2.1,1.5l-4.3,7.7
		c-0.3,0.6-0.4,1.2-0.3,1.9v2.9c0,2.4-0.1,2.2,2.2,2.5v0.7h-6.9L447.8,128.9L447.8,128.9z"/>
	<path class="st0" d="M463.4,128.9c2.3-0.3,2.2-0.1,2.2-2.5V115c0-2.4,0.1-2.3-2.2-2.5v-0.7h6.9v0.7c-2.3,0.3-2.2,0.2-2.2,2.5v11.8
		c0,1.8,1,2,3.3,2c3.7,0,3.5-1,4.7-3.8h0.6l-0.8,4.6h-12.4V128.9z"/>
	<path class="st0" d="M484,112.5c-1.4,0-2.4,0.4-1.6,2.9c1,3,2.5,7.4,3.8,11.2L491,115c0.6-1.6,0-2.4-1.8-2.4v-0.7h5.5v0.7
		c-0.9,0-1.8,0.6-2.1,1.5c-2.1,5.2-4.3,10.3-6.5,15.5h-1.3c-1.5-4.4-3.3-9.3-4.8-13.5c-1-2.7-1.7-3.5-3-3.5v-0.7h6.9L484,112.5
		L484,112.5z"/>
	<path class="st0" d="M505.5,122.8l-2.7-8.3l0,0l-3,8.3H505.5z M499.3,123.7l-1.2,3.4c-0.3,0.6,0,1.4,0.6,1.7
		c0.2,0.1,0.4,0.1,0.7,0.1v0.7h-4.6v-0.7c0.8,0,1.5-0.5,1.8-1.3c1.1-2.3,4.1-10.5,6.2-16.1h1.4c1.7,5.1,4.3,12.9,5.2,15.1
		c0.6,1.4,1,2.2,2.1,2.2v0.7h-5.9v-0.7c1.6,0,1.8-0.8,1.3-2l-1.1-3.3L499.3,123.7L499.3,123.7z"/>
	<path class="st0" d="M530.6,129.6c-4.1-4.8-8.3-9.8-12.3-14.6v11.2c0,0.5,0.1,0.9,0.2,1.4c0.1,0.9,1,1.3,2.7,1.4v0.7h-6.3V129
		c1.2-0.1,2.1-0.5,2.2-1.4c0.1-0.5,0.2-0.9,0.2-1.4v-11.9c-0.6-1-1.8-1.7-3-1.7v-0.7h4.6l11.4,13.8l0,0v-10.4c0-0.5-0.1-0.9-0.2-1.4
		c-0.1-0.9-1-1.3-2.7-1.4v-0.7h6.3v0.7c-1.2,0.1-2.1,0.5-2.2,1.4c0,0.4-0.2,0.8-0.2,1.4v14.3H530.6z"/>
	<path class="st0" d="M542.5,126.4c0,2.4-0.1,2.2,2.2,2.5v0.7h-6.9v-0.7c2.3-0.3,2.2-0.1,2.2-2.5V115c0-2.4,0.1-2.2-2.2-2.5v-0.7
		h6.9v0.7c-2.3,0.3-2.2,0.1-2.2,2.5V126.4z"/>
	<path class="st0" d="M559.2,122.8l-2.7-8.3l0,0l-3,8.3H559.2z M553.2,123.7L552,127c-0.3,0.6,0,1.4,0.6,1.7
		c0.2,0.1,0.4,0.1,0.7,0.1v0.7h-4.6v-0.7c0.8,0,1.5-0.5,1.8-1.3c1.1-2.3,4.1-10.5,6.2-16.1h1.4c1.7,5.1,4.3,12.9,5.2,15.1
		c0.6,1.4,1,2.2,2.1,2.2v0.7h-5.9v-0.7c1.6,0,1.8-0.8,1.3-2l-1.1-3.3L553.2,123.7L553.2,123.7z"/>
	<path class="st0" d="M107.2,22.9h21.4c7,0,12.5,1.6,16.6,4.7c3.9,2.7,6.2,7.3,6.2,12c0,4.9-1.8,8.7-5.4,11.2s-8.7,4-15.3,4
		c-3,0-6-0.2-9.1-0.6v16.4c0,3.6,0.5,6,1.4,7.4c0.9,1.4,2.7,2,5.3,2v1.7h-21.1V80c2.6,0,4.3-0.7,5.3-2.1s1.4-3.8,1.4-7V34.1
		c0-3.5-0.5-6-1.4-7.4s-2.7-2.1-5.3-2.1V22.9z M128.8,25.2h-7.3v26.3c2.3,0.7,4.8,1.1,7.3,1c4.4,0,7.9-1.1,10.4-3.4
		c2.6-2.4,4.1-5.8,3.9-9.4c0.1-3.8-1.2-7.6-3.8-10.4C136.8,26.6,133.3,25.2,128.8,25.2z"/>
	<path class="st0" d="M179.7,72.3V75c-1.8,2.4-4.1,4.5-6.8,6c-2.6,1.3-5.4,1.9-8.3,1.8c-5.2,0.2-10.3-1.8-14-5.4
		c-3.7-3.5-5.7-8.4-5.6-13.5c-0.1-5.2,1.8-10.1,5.3-13.9c3.3-3.7,8-5.7,12.9-5.7c4.1,0,8,1.5,11,4.3c2.9,2.6,4.7,6.2,4.7,10.1v0.8
		h-26.7V60c-0.1,3.6,0.5,7.1,1.8,10.4c1.1,2.8,2.9,5.2,5.4,7c2.1,1.6,4.6,2.5,7.3,2.5c2.1,0.1,4.2-0.5,6.1-1.5
		C174.7,77.4,176.9,75.4,179.7,72.3z M152.4,57.7h19.8V57c0.2-2.9-0.8-5.7-2.8-7.8c-1.8-1.9-4.3-2.9-7-2.9c-2.7-0.1-5.3,1-7.1,3
		C153.5,51.7,152.5,54.7,152.4,57.7z"/>
	<path class="st0" d="M192.6,44.4v7.3c4.3-4.9,8.6-7.3,13.1-7.3c3.3-0.1,6.5,1.2,8.8,3.6c2.4,2.4,3.5,5.6,3.5,9.5v16.4
		c0,2.5,0.4,4.2,1.3,5c0.9,0.8,2.5,1.2,4.9,1.2v1.7h-19.4V80c2.4,0,4.1-0.3,5-0.9c0.9-0.6,1.3-1.8,1.3-3.6v-19
		c0.1-2.2-0.7-4.4-2.3-6.1c-1.6-1.5-3.7-2.4-5.9-2.3c-3.4,0-6.9,2.4-10.3,7.1v17.7c0,3,0.4,5,1.2,5.8c0.8,0.8,2.4,1.2,4.9,1.2v1.7
		h-19v-1.7c2.8,0,4.5-0.5,5.1-1.3c0.6-0.8,1-2.8,1-5.7V52.4c0-2.2-0.4-3.6-1.2-4.3c-0.8-0.7-2.4-1-4.9-1v-1.7l11.3-1.1H192.6z"/>
	<path class="st0" d="M236.7,44.4v7.3c4.3-4.9,8.6-7.3,13.1-7.3c3.3-0.1,6.5,1.2,8.8,3.6c2.4,2.4,3.5,5.6,3.5,9.5v16.4
		c0,2.5,0.4,4.2,1.3,5s2.5,1.2,4.9,1.2v1.7h-19.4V80c2.4,0,4.1-0.3,5-0.9c0.9-0.6,1.3-1.8,1.3-3.6v-19c0.1-2.2-0.7-4.4-2.3-6.1
		c-1.6-1.5-3.7-2.4-5.9-2.3c-3.4,0-6.9,2.4-10.3,7.1v17.7c0,3,0.4,5,1.2,5.8c0.8,0.8,2.4,1.2,4.9,1.2v1.7h-19.1v-1.7
		c2.8,0,4.5-0.5,5.1-1.3c0.6-0.8,1-2.8,1-5.7V52.4c0-2.2-0.4-3.6-1.2-4.3c-0.8-0.7-2.4-1-4.9-1v-1.7l11.3-1.1H236.7z"/>
	<path class="st0" d="M320.5,68.8h1.8l-3.6,12.8h-42.6V80c2,0.2,3.9-0.7,5.2-2.3c1-1.5,1.5-4,1.5-7.6V33.2c0-3.2-0.5-5.4-1.4-6.7
		c-0.9-1.3-2.7-1.9-5.3-1.9v-1.8h21v1.7c-2.4,0-4,0.7-5,2.2c-1,1.5-1.5,3.8-1.5,7.1V73c0,2.2,0.5,3.7,1.4,4.5
		c0.9,0.8,2.7,1.2,5.3,1.2h11.6c3.6,0,6.1-0.6,7.6-1.9C318,75.5,319.3,72.9,320.5,68.8z"/>
	<path class="st0" d="M334.5,44.4h1.8v30.5c0,2,0.4,3.4,1.3,4s2.5,1,4.8,1v1.7h-19.9v-1.7c2.9,0,4.8-0.3,5.6-1
		c0.8-0.7,1.3-2,1.3-4.1V52.4c0-2.2-0.4-3.7-1.2-4.4c-0.8-0.7-2.7-1.1-5.7-1.1v-1.7L334.5,44.4z M332.9,25.6c1.2,0,2.3,0.4,3.1,1.3
		c0.8,0.8,1.3,1.9,1.3,3.1c0,1.2-0.4,2.3-1.3,3.2c-0.8,0.8-1.9,1.3-3.1,1.3c-1.2,0-2.3-0.4-3.2-1.3c-0.9-0.8-1.4-2-1.4-3.2
		c0-1.2,0.4-2.3,1.3-3.1C330.5,26,331.7,25.6,332.9,25.6z"/>
	<path class="st0" d="M351.1,17.3h1.8v32.4c1.6-1.7,3.5-3.1,5.6-4c2.1-1,4.4-1.5,6.7-1.5c4.5-0.1,8.9,1.8,11.9,5.1
		c3.3,3.3,5,7.9,4.9,12.5c0.2,5.5-2.3,10.8-6.6,14.3c-4.4,3.8-10.4,5.6-18.2,5.6c-3.8-0.1-7.5-0.5-11.2-1.1V26.3
		c0-2.9-0.4-4.6-1.1-5.3s-2.5-1-5.4-1v-1.7L351.1,17.3z M352.9,52.4v20.7c0,2.7,0.5,4.6,1.4,5.6c0.9,1,2.5,1.5,4.8,1.5
		c4.7,0,8.5-1.5,11.1-4.6c2.7-3.1,4.1-7.3,4.1-12.7c0-4.6-1.2-8.4-3.6-11.2s-5.2-4.4-8.6-4.4S355.7,48.9,352.9,52.4L352.9,52.4z"/>
	<path class="st0" d="M395.4,44.4v7.9c2.4-2.2,5-4.2,7.8-6.1c1.4-1,3-1.6,4.7-1.8c2.5,0.1,4.9,1.1,6.7,2.9l-2.8,6.5
		c-3.9-2.1-6.8-3.2-8.7-3.2c-2.1,0-4.7,1.5-7.8,4.4v20c0,2,0.4,3.4,1.3,4.1c0.9,0.7,2.5,1.1,4.8,1.1v1.7h-19.2v-1.7
		c2.5,0,4.2-0.4,5-1.2c0.8-0.8,1.2-2.7,1.2-5.8V53.3c0-2.5-0.4-4.1-1.3-4.9c-0.9-0.8-2.9-1.1-6.3-1.1v-1.7l12.7-1.1L395.4,44.4z"/>
	<path class="st0" d="M425.3,82.8c-2.7,0-5.3-1-7.3-2.8c-2-1.7-3.1-4.2-3.1-6.9c0-2.4,0.9-4.6,2.6-6.3c1.7-1.7,5.3-3.2,10.6-4.8
		c2.3-0.5,4.6-1.3,6.8-2.4V57c0.1-2.3-0.7-4.6-2.2-6.4c-1.5-1.6-3.7-2.5-5.9-2.4c-2.2,0-4.3,0.7-6,2.1c-1.8,1.5-3.1,3.4-3.7,5.7
		l-1.9-0.5c1.2-6.5,6.9-11.1,13.4-11.1c3.5-0.1,6.9,1.1,9.5,3.5c2.5,2.6,3.9,6.1,3.7,9.8v15.5c-0.1,1.5,0,3,0.4,4.5
		c0.2,0.7,0.8,1.2,1.6,1.2c0.5,0,1-0.2,1.3-0.7c0.5-0.9,0.9-1.8,1.2-2.8h1.8c-0.1,2-0.8,3.9-2.1,5.4c-1.3,1.3-3.1,2.1-5,2
		c-3,0-5-1.7-6.2-5.2c-1.4,1.6-3,3-4.8,4.1C428.7,82.4,427,82.8,425.3,82.8z M435.1,74.2V61.9c-1,0.4-2.5,1-4.5,1.7
		c-3.7,1.2-6,2.5-7,3.7c-1.1,1.4-1.6,3.2-1.5,5c-0.1,1.7,0.5,3.4,1.6,4.7c0.9,1.2,2.3,2,3.9,2c1.5,0,3-0.5,4.3-1.3
		C433.3,76.8,434.4,75.6,435.1,74.2z"/>
	<path class="st0" d="M461.9,44.4v7.9c2.4-2.2,5-4.2,7.8-6.1c1.4-1,3-1.6,4.7-1.8c2.5,0.1,4.9,1.1,6.7,2.9l-2.8,6.5
		c-3.9-2.1-6.8-3.2-8.7-3.2c-2.1,0-4.7,1.5-7.8,4.4v20c0,2,0.4,3.4,1.3,4.1s2.5,1.1,4.8,1.1v1.7h-19.2v-1.7c2.5,0,4.2-0.4,5-1.2
		c0.8-0.8,1.2-2.7,1.2-5.8V53.3c0-2.5-0.4-4.1-1.3-4.9c-0.9-0.8-2.9-1.1-6.3-1.1v-1.7l12.7-1.1L461.9,44.4L461.9,44.4z"/>
	<path class="st0" d="M495.1,44.4h1.8v30.5c0,2,0.4,3.4,1.3,4c0.9,0.6,2.5,1,4.8,1v1.7H483v-1.7c2.9,0,4.8-0.3,5.6-1
		c0.8-0.7,1.3-2,1.3-4.1V52.4c0-2.2-0.4-3.7-1.2-4.4c-0.8-0.7-2.7-1.1-5.7-1.1v-1.7L495.1,44.4z M493.5,25.6c1.2,0,2.3,0.4,3.1,1.3
		c0.8,0.8,1.3,1.9,1.3,3.1c0,1.2-0.4,2.3-1.3,3.2c-0.8,0.8-1.9,1.3-3.1,1.3c-1.2,0-2.3-0.4-3.2-1.3c-0.9-0.8-1.4-2-1.4-3.2
		c0-1.2,0.4-2.3,1.3-3.1C491.1,26,492.2,25.5,493.5,25.6z"/>
	<path class="st0" d="M537,72.3V75c-1.8,2.4-4.1,4.5-6.8,6c-2.6,1.3-5.4,1.9-8.3,1.8c-5.2,0.2-10.3-1.8-14-5.4
		c-3.7-3.5-5.7-8.4-5.6-13.5c-0.1-5.2,1.8-10.1,5.3-13.9c3.3-3.7,8-5.7,12.9-5.7c4.1,0,8,1.5,11,4.3c3,2.5,4.7,6.2,4.7,10.1v0.8
		h-26.7V60c-0.1,3.6,0.5,7.1,1.8,10.4c1.1,2.8,2.9,5.2,5.4,7c2.1,1.6,4.6,2.5,7.3,2.5c2.1,0.1,4.2-0.5,6.1-1.5
		C532.1,77.4,534.3,75.4,537,72.3z M509.8,57.7h19.8V57c0.2-2.9-0.8-5.7-2.8-7.8c-1.8-1.9-4.3-2.9-7-2.9c-2.7-0.1-5.3,1-7.1,3
		C510.9,51.7,509.8,54.7,509.8,57.7z"/>
	<path class="st0" d="M564.2,44.4v11.1h-2.1c-0.2-2.5-1.2-4.9-3-6.7c-1.6-1.6-3.8-2.5-6.1-2.5c-1.6-0.1-3.1,0.4-4.4,1.4
		c-1.1,0.9-1.7,2.2-1.7,3.6c0,1.4,0.5,2.8,1.5,3.9c1,1.1,3.2,2.5,6.7,4c4.4,2,7.3,3.9,8.8,5.8c3.2,4.5,2.7,10.6-1.3,14.4
		c-2.1,2.1-5,3.3-8.1,3.3c-2.2-0.2-4.4-0.8-6.4-1.8c-0.9-0.5-1.9-0.8-2.9-1c-0.6,0-1.2,0.2-1.6,0.7c-0.4,0.5-0.7,1.1-0.8,1.8h-1.8
		V70h1.8c0.4,3,1.9,5.7,4.2,7.8c2,1.9,4.7,2.9,7.5,2.9c3.4,0.1,6.2-2.6,6.3-6c0-0.1,0-0.2,0-0.3c0-1.6-0.6-3.2-1.7-4.5
		c-1.1-1.3-3.6-2.7-7.3-4.4c-4.2-1.9-7-3.6-8.3-5.2c-1.3-1.6-2-3.7-2-5.8c0-2.8,1.2-5.5,3.3-7.4c2.1-2,4.9-3.1,7.8-3.1
		c1.6,0,3.1,0.4,4.6,1c0.9,0.4,1.9,0.7,2.9,0.7c1,0,1.9-0.7,2.2-1.7L564.2,44.4L564.2,44.4z"/>
</g>
<g id="line">
	<line class="st3" x1="629" y1="1" x2="629" y2="162"/>
</g>
<g id="franklin">
	<text transform="matrix(1 0 0 1 682 111.2998)" class="st0 st4 st5">Franklin</text>
</g>
</svg>
