<svg id="Layer_1" data-name="Layer 1" xmlns="http://www.w3.org/2000/svg" viewBox="0 0 568.9 121.1"><defs><style>.cls-1{fill:#fff;}.cls-2{fill:#900;}.cls-3{fill:#011f5b;}</style></defs><rect class="cls-1" x="107.7" y="76.4" width="460.5" height="1.6"/><path class="cls-1" d="M100,1.2H2.5V49.8C2.4,71,14.2,86.3,24,95.4c10.8,10,22.8,15.8,26.8,16.7l.5.1.5-.1c4-.9,15.9-6.7,26.8-16.7,9.8-9.1,21.6-24.5,21.5-45.6L100,1.2" transform="translate(-2.5 2.6)"/><path class="cls-2" d="M94,21.5h0c.1.1.3.2.4.4a1.42,1.42,0,0,1,.2.6.76.76,0,0,1-.2.5c-.1.2-.3.3-.4.4s-.4.3-.4.6v1.7H73.2V24a.68.68,0,0,0-.4-.6c-.1-.1-.3-.2-.4-.4a1.42,1.42,0,0,1-.2-.6,1.42,1.42,0,0,1,.2-.6c.1-.2.3-.3.4-.4s.4-.3.4-.6V15.2a.68.68,0,0,0-.4-.6c-.1-.1-.3-.2-.4-.4a1.42,1.42,0,0,1-.2-.6,1.42,1.42,0,0,1,.2-.6l.4-.4c.2-.2.4-.3.4-.6V10.2h.3a6.83,6.83,0,0,0,3-.4,4.05,4.05,0,0,0,.9-.5,4,4,0,0,1,2.4-.8,5.58,5.58,0,0,1,2.3.6,4.6,4.6,0,0,0,1.3.4h.1a3.82,3.82,0,0,0,1.3-.4,6,6,0,0,1,2.3-.6,4,4,0,0,1,2.4.8,4.05,4.05,0,0,0,.9.5,8.36,8.36,0,0,0,3,.4h.3V12a.68.68,0,0,0,.4.6c.1.1.3.2.4.4a1.42,1.42,0,0,1,.2.6,1.42,1.42,0,0,1-.2.6l-.4.4c-.2.2-.4.3-.4.6v5.6a.56.56,0,0,0,.3.7m-25.1,3a8.41,8.41,0,0,1-4.8,3.2,11,11,0,0,1-1.8.2c-3.2,0-6.1-1.4-9.1-2.9a10.91,10.91,0,0,0-1.1-.6c-1.9-1-4.6-2.5-6.8-2.5a3.42,3.42,0,0,0-1.8.4h-.1v.1a1.88,1.88,0,0,1-.2.8,6.28,6.28,0,0,1-2.1,2.4,8.62,8.62,0,0,1-4.9,1.9,2,2,0,0,1-.8-.1,2,2,0,0,1-.9-.6,2.19,2.19,0,0,1-.3-.5.75.75,0,0,1-.1-.5v-.1H34a1.39,1.39,0,0,1-1.2-1.4c0-.5.4-.9.7-1.3.5-.6,1-1.1.2-1.8l-.2-.2c-.1-.1-.2-.1-.3-.3-.6-.7-.3-2.1,0-3v-.1a17,17,0,0,1,1.2-3,12.56,12.56,0,0,1,2.8-4h.2a1.72,1.72,0,0,0,.4.6l.2.3.1-.4c.4-1,.9-1.7,1.7-1.9a2.19,2.19,0,0,1,2,.4l.2.1.1-.2a1.77,1.77,0,0,1,1.4-.9,2.41,2.41,0,0,1,1.8.9l.1.1.1-.1a3.5,3.5,0,0,1,2.3-.9,1.71,1.71,0,0,1,1.4,1.3l.1.2.2-.1a2.19,2.19,0,0,1,2.1,0,1.19,1.19,0,0,1,.5,1.3v.2h.2a2.5,2.5,0,0,1,2.3.5,2.26,2.26,0,0,1,.5,1.7v.2h.2a1.53,1.53,0,0,1,1.6.6,1.51,1.51,0,0,1,.1,1.3l-.1.2h.2a1.69,1.69,0,0,1,1,.7,2.68,2.68,0,0,1-.1,1.5l-.1.2.2.1a2,2,0,0,1,1,.9,2.47,2.47,0,0,1,0,1.9v.1l.1.1a23.27,23.27,0,0,0,2,1.6c1.4,1,3.5,1.5,4.9.3a1.92,1.92,0,0,0,.6-2,1.76,1.76,0,0,0-1.2-1.3c-1.1-.2-2,.8-2.7,1.8h-.1a.1.1,0,0,1-.1-.1,4.24,4.24,0,0,1-.1-3.8,3.69,3.69,0,0,1,2.6-1.6h.2v-.2a5.36,5.36,0,0,1,1.3-4,3.75,3.75,0,0,1,3.2-.8h.1v.1c-1.2,2.9-.9,4-.3,6.4a6.37,6.37,0,0,1,.2.7,8.67,8.67,0,0,1-.9,5.9m-39.1-3h0c.1.1.3.2.4.4a1.42,1.42,0,0,1,.2.6.76.76,0,0,1-.2.5c-.1.2-.3.3-.4.4s-.4.3-.4.6v1.7H9V24a.68.68,0,0,0-.4-.6c-.1-.1-.3-.2-.4-.4a1.42,1.42,0,0,1-.2-.6,1.42,1.42,0,0,1,.2-.6c.1-.2.3-.3.4-.4s.4-.3.4-.6V15.2a.68.68,0,0,0-.4-.6c-.1-.1-.3-.2-.4-.4a1.42,1.42,0,0,1-.2-.6,1.42,1.42,0,0,1,.2-.6l.4-.4c.2-.2.4-.3.4-.6V10.2h.3a6.83,6.83,0,0,0,3-.4,4.05,4.05,0,0,0,.9-.5,4,4,0,0,1,2.4-.8,6,6,0,0,1,2.3.6,4.6,4.6,0,0,0,1.3.4h.1a3.82,3.82,0,0,0,1.3-.4,6,6,0,0,1,2.3-.6,4,4,0,0,1,2.4.8,4.05,4.05,0,0,0,.9.5,8.36,8.36,0,0,0,3,.4h.3V12a.68.68,0,0,0,.4.6c.1.1.3.2.4.4a1.42,1.42,0,0,1,.2.6,1.42,1.42,0,0,1-.2.6l-.4.4c-.2.2-.4.3-.4.6v5.6a.56.56,0,0,0,.3.7M5,3.8S5.1,32,5,31.9H97.6V3.8Z" transform="translate(-2.5 2.6)"/><path class="cls-3" d="M36.9,20.3a1.61,1.61,0,0,1,.9.3c.1.1.2.2.3.2a.48.48,0,0,1,0,.7c-.2.2-.5.4-.6.5-.4.3-1,.7-1.5.4-.2-.2.2-.5,0-1.3-.2-.5.4-.8.9-.8" transform="translate(-2.5 2.6)"/><path class="cls-3" d="M37,11.2a13.09,13.09,0,0,0-2.4,3.7,13.1,13.1,0,0,0-1.1,2.9v.1c-.2.7-.5,2.1-.1,2.6.1.1.2.1.2.2s.2.1.3.2c1,1,.3,1.8-.2,2.4-.3.4-.6.7-.6,1,0,.7.9,1,1.1,1s.2.1.2.3a.75.75,0,0,0,.1.5c.1.1.1.3.2.4a1.79,1.79,0,0,0,.7.5,1.48,1.48,0,0,0,.7.1,8.19,8.19,0,0,0,4.7-1.8,5.92,5.92,0,0,0,2-2.2,1.27,1.27,0,0,0,.1-.6l-1.3-.2h0q-.15,0-.3-.3c0-.3.2-.4.7-.7.1-.1.3-.2.4-.3.7-.5,1.3-.9,1.6-1.1a5.08,5.08,0,0,1-.9-1.3,6.82,6.82,0,0,0-.5-.7,2.25,2.25,0,0,0-2.8-.5,7.63,7.63,0,0,0-1.1.8,5.5,5.5,0,0,1-.9.7.25.25,0,0,1-.4-.1.3.3,0,0,1,0-.4l.1-.1c.4-.4,1.4-1.4,1.4-2,.1-1.7-1.4-4.2-1.9-5.1m8.3,10.2c2.3,0,4.9,1.4,7,2.6a10.91,10.91,0,0,1,1.1.6c3.5,1.8,7,3.4,10.7,2.7a7.58,7.58,0,0,0,4.5-3,6.79,6.79,0,0,0,.5-5.5c-.1-.2-.1-.5-.2-.7-.6-2.3-1-3.5.1-6.3a3.72,3.72,0,0,0-2.5.7,5.36,5.36,0,0,0-1.2,3.9.27.27,0,0,1-.3.3,3.39,3.39,0,0,0-2.6,1.4,3.6,3.6,0,0,0-.1,2.9c.6-.8,1.5-1.8,2.8-1.5a1.91,1.91,0,0,1,1.5,1.6,2.8,2.8,0,0,1-.7,2.5c-1.6,1.3-3.9.8-5.4-.3a33.8,33.8,0,0,1-5.3-4.9c-.3-.4-.6-.7-.9-1.1a22.76,22.76,0,0,0-3.8-3.8,9.93,9.93,0,0,0-6.6-1.9A12.35,12.35,0,0,0,38.5,13a9,9,0,0,1,1,3.2.9.9,0,0,1-.1.5,2.75,2.75,0,0,1,3.4.7,5.55,5.55,0,0,1,.6.8,7.55,7.55,0,0,0,1.1,1.4c.1.1.1.1.1.2a.35.35,0,0,1-.1.2,21.22,21.22,0,0,0-1.8,1.3c-.1.1-.3.2-.4.3a.1.1,0,0,0-.1.1l.9.2a4.42,4.42,0,0,1,2.2-.5m17,6.6c-3.2,0-6.2-1.4-9.2-3a10.91,10.91,0,0,0-1.1-.6c-2.4-1.3-6.1-3.3-8.5-2.1a2.92,2.92,0,0,1-.2.9,7.76,7.76,0,0,1-2.2,2.5,8.27,8.27,0,0,1-5,1.9,2.77,2.77,0,0,1-.9-.1,2.29,2.29,0,0,1-1-.7,2.19,2.19,0,0,1-.3-.5.9.9,0,0,1-.1-.5c-.9-.3-1.4-.8-1.4-1.5a2.67,2.67,0,0,1,.7-1.4c.6-.7.8-1,.3-1.6l-.2-.2-.3-.3c-.7-.8-.3-2.3-.1-3.1v-.1a14.43,14.43,0,0,1,1.2-3,10.94,10.94,0,0,1,2.9-4.1c.1-.1.1-.1.2-.1a.35.35,0,0,1,.2.1s.5.8,1.1,1.8A15.17,15.17,0,0,1,44,10.8a10.53,10.53,0,0,1,7,2,20,20,0,0,1,3.8,3.9c.3.4.6.7.9,1.1a38.55,38.55,0,0,0,5.2,4.9c1.3,1,3.3,1.5,4.7.3a2,2,0,0,0,.6-1.9,1.67,1.67,0,0,0-1.1-1.2c-1-.2-1.8.8-2.5,1.8a.37.37,0,0,1-.3.1.22.22,0,0,1-.2-.2,4.35,4.35,0,0,1-.1-4,3.69,3.69,0,0,1,2.7-1.7c0-1.9.4-3.3,1.4-4.1a3.78,3.78,0,0,1,3.3-.8.35.35,0,0,1,.2.1.19.19,0,0,1,0,.3c-1.2,2.9-.9,4-.3,6.3a6.37,6.37,0,0,1,.2.7,7.33,7.33,0,0,1-.6,5.9c-1.6,2.6-4.8,3.2-4.9,3.3a2.41,2.41,0,0,1-1.7.4" transform="translate(-2.5 2.6)"/><path class="cls-3" d="M35,26h-.9a.3.3,0,1,1,0-.6,5.61,5.61,0,0,0,5-1.8.28.28,0,0,1,.4.4A5.77,5.77,0,0,1,35,26" transform="translate(-2.5 2.6)"/><path class="cls-3" d="M58.6,21.6h-.1c-.1-.1-.2-.2-.1-.4.3-.7.4-1.3.1-1.7a1.76,1.76,0,0,0-1-.8c-.1,0-.1-.1-.2-.1v-.2a3.64,3.64,0,0,0,.2-1.5c-.1-.4-.8-.5-1-.5a.35.35,0,0,1-.2-.1c0-.1-.1-.2,0-.3s.3-.9.1-1.2c-.4-.7-1.6-.3-1.6-.3a.35.35,0,0,1-.4-.4,2,2,0,0,0-.3-1.7c-.8-.8-2.4-.3-2.4-.3a.35.35,0,0,1-.4-.4s.3-.9-.3-1.3a1.93,1.93,0,0,0-2,.2.19.19,0,0,1-.3,0c-.1,0-.1-.1-.2-.2s-.2-1.2-1.1-1.3a3.37,3.37,0,0,0-2.2,1c-.1.1-.1.1-.2.1s-.1,0-.2-.1-.8-1-1.7-.9-1.3,1-1.3,1-.1.1-.2.2a.37.37,0,0,1-.3-.1s-.9-.9-1.8-.5c-1.2.4-1.5,1.9-1.6,2.3h0c0,.1-.2.2-.3.2s-.2-.2-.2-.3h0c.1-.5.5-2.2,1.9-2.7a2.32,2.32,0,0,1,2.1.4,1.77,1.77,0,0,1,1.6-1,3.4,3.4,0,0,1,2,.9,3,3,0,0,1,2.4-.9,1.7,1.7,0,0,1,1.5,1.4,2.41,2.41,0,0,1,2.2,0,1.57,1.57,0,0,1,.6,1.5,3,3,0,0,1,2.5.5,2,2,0,0,1,.5,1.8,1.92,1.92,0,0,1,1.8.6,1.74,1.74,0,0,1,.1,1.4,1.48,1.48,0,0,1,1.1.8,2.86,2.86,0,0,1-.1,1.6,2,2,0,0,1,1.1,1,2.46,2.46,0,0,1-.1,2.2c.2,0,.1.1,0,.1" transform="translate(-2.5 2.6)"/><path class="cls-3" d="M57.2,25.4h0a.32.32,0,0,1-.3-.3c.1-1-.5-1.2-1-1.4-.1,0-.3-.1-.4-.1-.3-.2-.3-.5-.3-.9a1.8,1.8,0,0,0-.3-1.2c-.5-.6-1.5-.2-1.5-.2h-.3A.37.37,0,0,1,53,21a2,2,0,0,0-.5-1.7,2.28,2.28,0,0,0-1.9-.3c-.1,0-.2,0-.2-.1s-.1-.1-.1-.2a1.48,1.48,0,0,0-.8-1.6,1.41,1.41,0,0,0-1.4-.1c-1.2.6-1.6.7-2.8-.2a1.25,1.25,0,0,0-1.1-.3A1.78,1.78,0,0,0,43,17.7c-.1.1-.2.2-.4.1s-.2-.2-.1-.4a2.6,2.6,0,0,1,1.6-1.5,2,2,0,0,1,1.6.4c1,.7,1.3.7,2.2.2a2,2,0,0,1,2,.1,2.1,2.1,0,0,1,1,1.8,2.83,2.83,0,0,1,2.1.4,2.31,2.31,0,0,1,.7,1.8,1.68,1.68,0,0,1,1.7.5,3.32,3.32,0,0,1,.5,1.5V23c.1,0,.1.1.3.1a1.71,1.71,0,0,1,1.4,2c-.1.2-.2.3-.4.3" transform="translate(-2.5 2.6)"/><path class="cls-3" d="M30,22.5a.37.37,0,0,1-.1.3l-.3.3a1.15,1.15,0,0,0-.6.9v1.3H9.4V24a1,1,0,0,0-.6-.9c-.1-.1-.3-.2-.3-.3a.37.37,0,0,1-.1-.3h0a.37.37,0,0,1,.1-.3l.3-.3a1.15,1.15,0,0,0,.6-.9V15.4a1,1,0,0,0-.6-.9c-.1-.1-.3-.2-.3-.3a.37.37,0,0,1-.1-.3h0a.37.37,0,0,1,.1-.3l.3-.3a1.15,1.15,0,0,0,.6-.9V11.1h1.5v13h7.2a1.2,1.2,0,0,0,1.2.9,1.29,1.29,0,0,0,1.2-.9h7.1v-13h1.5v1.3a1,1,0,0,0,.6.9l.3.3a.37.37,0,0,1,.1.3h0a.37.37,0,0,1-.1.3l-.3.3a1.15,1.15,0,0,0-.6.9V21a1,1,0,0,0,.6.9l.3.3c.1.1,0,.2,0,.3Zm-17.7-12a4.05,4.05,0,0,0,.9-.5,3.64,3.64,0,0,1,2.2-.8,5.55,5.55,0,0,1,2.2.6,3.82,3.82,0,0,0,1.3.4V21.6h-.1a8.15,8.15,0,0,0-2.2.6l-.9.3a8,8,0,0,1-2.6.3,8.08,8.08,0,0,0-1.6.1v-12a2,2,0,0,1,.8-.4m8.4-.8a5.55,5.55,0,0,1,2.2-.6,3.59,3.59,0,0,1,2.1.8,4.05,4.05,0,0,0,.9.5l.9.3v12a8.08,8.08,0,0,0-1.6-.1,7.43,7.43,0,0,1-2.6-.3l-.9-.3a19.37,19.37,0,0,0-2.2-.6h0V10a1.8,1.8,0,0,0,1.2-.3m9.2,11.7c-.2-.2-.4-.3-.4-.5V15.3c0-.2.1-.3.4-.5.1-.1.3-.2.4-.4a1.45,1.45,0,0,0,.2-.7,1.85,1.85,0,0,0-.2-.7c-.1-.2-.3-.3-.4-.4s-.4-.3-.4-.5v-2h-.4a8.33,8.33,0,0,1-2.9-.3,2.18,2.18,0,0,1-.8-.5,4.38,4.38,0,0,0-2.5-.9,6.06,6.06,0,0,0-2.4.6,4.15,4.15,0,0,1-1.2.4h-.2A3.37,3.37,0,0,1,17.9,9a6.06,6.06,0,0,0-2.4-.6,4.67,4.67,0,0,0-2.5.9,9.22,9.22,0,0,1-.8.5,8.33,8.33,0,0,1-2.9.3H8.9v2c0,.2-.1.3-.4.5l-.4.4a1.45,1.45,0,0,0-.2.7,1.85,1.85,0,0,0,.2.7c.1.2.3.3.4.4s.4.3.4.5v5.6c0,.2-.1.3-.4.5l-.4.4a1.45,1.45,0,0,0-.2.7,1.85,1.85,0,0,0,.2.7c.1.2.3.3.4.4s.4.3.4.5V26H29.7V24.1c0-.2.1-.3.4-.5l.4-.4a1.45,1.45,0,0,0,.2-.7,1.85,1.85,0,0,0-.2-.7,6.13,6.13,0,0,0-.6-.4" transform="translate(-2.5 2.6)"/><path class="cls-3" d="M94.1,22.5a.37.37,0,0,1-.1.3l-.3.3a1.15,1.15,0,0,0-.6.9v1.3H73.5V24a1,1,0,0,0-.6-.9l-.3-.3a.37.37,0,0,1-.1-.3h0a.37.37,0,0,1,.1-.3l.3-.3a1.15,1.15,0,0,0,.6-.9V15.4a1,1,0,0,0-.6-.9l-.3-.3a.37.37,0,0,1-.1-.3h0a.37.37,0,0,1,.1-.3l.3-.3a1.15,1.15,0,0,0,.6-.9V11.1H75v13h7.2a1.2,1.2,0,0,0,1.2.9,1.09,1.09,0,0,0,1.1-.9h7.2v-13h1.5v1.3a1,1,0,0,0,.6.9l.3.3a.37.37,0,0,1,.1.3h0a.37.37,0,0,1-.1.3l-.3.3a1.15,1.15,0,0,0-.6.9V21a1,1,0,0,0,.6.9l.3.3a.19.19,0,0,1,0,.3Zm-17.6-12a4.05,4.05,0,0,0,.9-.5,3.59,3.59,0,0,1,2.1-.8,5.55,5.55,0,0,1,2.2.6,3.82,3.82,0,0,0,1.3.4V21.6h-.1a8.15,8.15,0,0,0-2.2.6l-.9.3a8,8,0,0,1-2.6.3,8.08,8.08,0,0,0-1.6.1v-12a3.08,3.08,0,0,1,.9-.4m8.4-.8a5.55,5.55,0,0,1,2.2-.6,3.59,3.59,0,0,1,2.1.8,4.05,4.05,0,0,0,.9.5l.9.3v12a8.08,8.08,0,0,0-1.6-.1,7.43,7.43,0,0,1-2.6-.3l-.9-.3a19.37,19.37,0,0,0-2.2-.6h0V10c.3.1.7-.1,1.2-.3m9.2,11.7c-.2-.2-.4-.3-.4-.5V15.3c0-.2.1-.3.4-.5.1-.1.3-.2.4-.4a1.45,1.45,0,0,0,.2-.7,1.85,1.85,0,0,0-.2-.7c-.1-.2-.3-.3-.4-.4s-.4-.3-.4-.5v-2h-.4a8.33,8.33,0,0,1-2.9-.3,2.18,2.18,0,0,1-.8-.5,4.38,4.38,0,0,0-2.5-.9,6.06,6.06,0,0,0-2.4.6,4.15,4.15,0,0,1-1.2.4h-.2A3.37,3.37,0,0,1,82.1,9a6.06,6.06,0,0,0-2.4-.6,4.38,4.38,0,0,0-2.5.9,9.22,9.22,0,0,1-.8.5,8.63,8.63,0,0,1-2.9.3h-.4v2c0,.2-.1.3-.4.5l-.4.4a1.45,1.45,0,0,0-.2.7,1.85,1.85,0,0,0,.2.7c.1.2.3.3.4.4s.4.3.4.5v5.6c0,.2-.1.3-.4.5l-.4.4a1.45,1.45,0,0,0-.2.7,1.85,1.85,0,0,0,.2.7c.1.2.3.3.4.4s.4.3.4.5V26H93.9V24.1c0-.2.1-.3.4-.5l.4-.4a1.45,1.45,0,0,0,.2-.7,1.85,1.85,0,0,0-.2-.7,5.92,5.92,0,0,1-.6-.4" transform="translate(-2.5 2.6)"/><path class="cls-3" d="M91.6,72.7l-40.4-39-40.4,39A53.6,53.6,0,0,1,5.6,49.8V32.5H96.8V49.8a50.51,50.51,0,0,1-5.2,22.9M78.7,76.8a8.15,8.15,0,0,1-11.4,0,8.06,8.06,0,0,1,0-11.4,8.15,8.15,0,0,1,11.4,0,8,8,0,0,1,0,11.4M43.2,51.2a8,8,0,1,1,8,8,8,8,0,0,1-8-8M76.3,93.1C65.5,103.2,54.2,108.2,51.2,109c-3-.8-14.3-5.8-25.1-15.9l-.8-.8L51.2,64.8,77.1,92.3a6,6,0,0,1-.8.8M23.7,76.8A8.06,8.06,0,1,1,35.1,65.4,8.06,8.06,0,0,1,23.7,76.8M96.8,31.2H5.6V4.3H96.8ZM98.1,3H4.3V49.7C4.2,70.2,15.6,85.1,25.2,94c10.4,9.7,22.2,15.4,25.9,16.3h.2c3.7-.8,15.4-6.6,25.9-16.3,9.6-8.9,21-23.8,20.9-44.3V3Z" transform="translate(-2.5 2.6)"/><path class="cls-1" d="M116.3,100.9c0,4.6,1.3,8.1,6.2,8.1,4.5,0,6.9-3,6.9-8.3V91.5a9,9,0,0,0-.2-1.8c-.2-1.2-1.3-1.6-2.8-1.8V87h7.8v.9c-1.6.2-2.7.6-2.8,1.8a9,9,0,0,0-.2,1.8v9.3c0,7.1-4.5,9.7-8.8,9.7-7,0-9.2-3.6-9.2-9.5V91.2c0-3.1.1-2.9-2.8-3.3V87h8.9v.9c-3,.4-2.8.2-2.8,3.3l-.2,9.7Z" transform="translate(-2.5 2.6)"/><path class="cls-1" d="M152.8,110.3c-4-4.8-8.2-9.8-12.4-14.7v11.3a5.9,5.9,0,0,0,.2,1.4c.1.9,1,1.3,2.7,1.4v.7H137v-.7c1.2-.1,2.1-.5,2.2-1.4,0-.4.1-.8.1-1.4v-12a3.58,3.58,0,0,0-3-1.7v-.7h4.6l11.5,13.9h0V95.9c0-.5-.1-1-.1-1.4-.1-.9-1-1.3-2.7-1.4v-.7h6.3v.7c-1.2.1-2.1.5-2.2,1.4,0,.4-.1.8-.1,1.4v14.4Z" transform="translate(-2.5 2.6)"/><path class="cls-1" d="M165.4,107.1c0,2.4-.1,2.2,2.2,2.5v.7h-6.9v-.7c2.3-.3,2.2-.1,2.2-2.5V95.6c0-2.4.1-2.2-2.2-2.5v-.7h6.9v.7c-2.3.3-2.2.1-2.2,2.5Z" transform="translate(-2.5 2.6)"/><path class="cls-1" d="M178.6,93.1c-1.4,0-2.4.4-1.6,2.9,1,3,2.5,7.4,3.8,11.3l4.8-11.7q.9-2.4-1.8-2.4v-.7h5.5v.7a2.2,2.2,0,0,0-2.1,1.5c-2.1,5.2-4.3,10.4-6.4,15.6h-1.3c-1.5-4.4-3.3-9.3-4.8-13.6-.9-2.7-1.7-3.5-3-3.5v-.7h6.9v.6Z" transform="translate(-2.5 2.6)"/><path class="cls-1" d="M193.3,109.6c2.3-.3,2.2-.1,2.2-2.5V95.6c0-2.4.1-2.3-2.2-2.5v-.7h11.4v4.1H204c-.3-1.9-.8-3.3-2.6-3.3H198v7.3h2.1c1.6,0,2.3-.6,2.3-2.2h.7v5.4h-.7c0-1.5-.6-2.4-2.3-2.4H198v5.8c0,2.2,1,2.4,3.3,2.4,3.7,0,3.5-1,4.7-3.8h.7l-.8,4.6H193.4v-.7Z" transform="translate(-2.5 2.6)"/><path class="cls-1" d="M215.6,101.5h2.1c2.2,0,3.2-1.7,3.2-4.5s-1.5-3.8-3.4-3.8h-2l.1,8.3ZM211,92.4h7.4c2.6,0,5.1,1.4,5.1,4.3a5.49,5.49,0,0,1-3.6,5.2l2.5,3.8a18.38,18.38,0,0,0,3.6,4.2v.3h-2.6c-1.5,0-2.3-2.8-5.4-7.9h-2.4V107c0,2.4-.1,2.2,2.2,2.5v.7H211v-.7c2.3-.3,2.2-.1,2.2-2.5V95.5c0-2.4.1-2.2-2.2-2.5v-.6Z" transform="translate(-2.5 2.6)"/><path class="cls-1" d="M238.9,96.2c-.2-1.8-1.2-3.2-3.2-3.2a2.52,2.52,0,0,0-2.8,2.6c0,1.8,1.8,2.9,4.3,4.8,2.7,2,3.6,3.3,3.6,5.4,0,3-3.1,4.7-6.2,4.7a12.73,12.73,0,0,1-4.4-.8c-.1,0-.2-.1-.2-.4v-3.7h.7c.3,2.8,2.1,4,4.1,4a3.24,3.24,0,0,0,3.3-3.2c0-1.6-.9-3-4.7-5.5-1.4-.9-3.1-1.9-3.1-4.7,0-2.3,2.5-4.1,5.5-4.1a11.19,11.19,0,0,1,3.6.5c.2,0,.2.1.2.3v3.4h-.7Z" transform="translate(-2.5 2.6)"/><path class="cls-1" d="M250.8,107.1c0,2.4-.1,2.2,2.2,2.5v.7h-6.9v-.7c2.3-.3,2.2-.1,2.2-2.5V95.6c0-2.4.1-2.2-2.2-2.5v-.7H253v.7c-2.3.3-2.2.1-2.2,2.5Z" transform="translate(-2.5 2.6)"/><path class="cls-1" d="M266,107.1c0,2.4-.1,2.2,2.2,2.5v.7h-6.9v-.7c2.3-.3,2.2-.1,2.2-2.5V93.3h-2.3c-2.2,0-2.7,1.4-3.6,3.1H257l.7-3.9h14.1l.7,3.9h-.6c-.8-1.7-1.3-3.1-3.6-3.1H266Z" transform="translate(-2.5 2.6)"/><path class="cls-1" d="M279.9,109.6c2.3-.3,2.2-.1,2.2-2.5v-3.9l-3.9-7.8c-.8-1.7-1.5-2.3-2.7-2.3v-.7H282v.7c-1.9,0-1.8,1-1.1,2.3l3.1,6.4,3.5-6.4c.9-1.6,0-2.3-1.5-2.3v-.7h5.3v.7c-.7,0-1.4.3-2.1,1.5l-4.3,7.7a3.81,3.81,0,0,0-.3,1.9v2.9c0,2.4-.1,2.2,2.2,2.5v.7h-6.9v-.7Z" transform="translate(-2.5 2.6)"/><path class="cls-1" d="M315.8,97.7c0-3.4-2.1-3.6-2.6-3.6-3.6,0-5.9,6.4-5.9,10.7,0,1.7.3,4.8,2.7,4.8,3.8,0,5.8-6.1,5.8-11.9m-11.6,6.4c0-4.3,3.7-10.8,9.2-10.8,4.4,0,5.4,3,5.4,6,0,3.6-2.9,11.4-9.2,11.4-4.2-.1-5.4-3.4-5.4-6.6" transform="translate(-2.5 2.6)"/><path class="cls-1" d="M334.2,94.4l-.8.7h-4.3a215.32,215.32,0,0,1-6.1,23.4h-1.5l4.7-23.4H323l.3-1.4h3.1c1.7-7,7.6-7.8,8.9-7.8.8,0,2.4.1,2.9.6l-.4,2.2-.8.4a3.44,3.44,0,0,0-2.9-1.9c-2,0-3.5,1.4-4.3,4.9l-.4,1.6h4.9Z" transform="translate(-2.5 2.6)"/><path class="cls-1" d="M354,106.1c0,3.1-.1,2.9,2.8,3.3v.9H348v-.9c3-.4,2.8-.2,2.8-3.3V91.2c0-3.1.1-2.9-2.8-3.3V87h8.6c5.5,0,8.2,2.2,8.2,6.1,0,4.8-4.3,7.3-9.4,7v-.6c4.1.1,6-2.4,6-6s-1.8-5.4-5.5-5.4h-2l.1,18Z" transform="translate(-2.5 2.6)"/><path class="cls-1" d="M369.4,109.6c2.3-.3,2.2-.1,2.2-2.5V95.6c0-2.4.1-2.3-2.2-2.5v-.7h11.4v4.1h-.6c-.3-1.9-.8-3.3-2.6-3.3h-3.5v7.3h2.1c1.6,0,2.3-.6,2.3-2.2h.7v5.4h-.7c0-1.5-.6-2.4-2.3-2.4h-2.1v5.8c0,2.2,1,2.4,3.3,2.4,3.7,0,3.5-1,4.7-3.8h.7l-.8,4.6H369.5l-.1-.7Z" transform="translate(-2.5 2.6)"/><path class="cls-1" d="M402.5,110.3c-4-4.8-8.3-9.8-12.4-14.7v11.3c0,.5.1,1,.1,1.4.1.9,1,1.3,2.7,1.4v.7h-6.2v-.7c1.2-.1,2.1-.5,2.2-1.4a5.21,5.21,0,0,0,.2-1.4v-12a3.58,3.58,0,0,0-3-1.7v-.7h4.6c3.8,4.6,7.8,9.3,11.5,13.9h0V95.9c0-.5-.1-1-.1-1.4-.1-.9-1-1.3-2.7-1.4v-.7h6.2v.7c-1.2.1-2.1.5-2.2,1.4,0,.4-.2.8-.2,1.4v14.4Z" transform="translate(-2.5 2.6)"/><path class="cls-1" d="M425.8,110.3c-4-4.8-8.3-9.8-12.4-14.7v11.3a5.9,5.9,0,0,0,.2,1.4c.1.9,1,1.3,2.7,1.4v.7h-6.2v-.7c1.2-.1,2.1-.5,2.2-1.4,0-.4.2-.8.2-1.4v-12a3.58,3.58,0,0,0-3-1.7v-.7h4.6c3.8,4.6,7.8,9.3,11.5,13.9h0V95.9c0-.5-.1-1-.1-1.4-.1-.9-1-1.3-2.7-1.4v-.7h6.3v.7c-1.2.1-2.1.5-2.2,1.4a5.21,5.21,0,0,0-.2,1.4v14.4Z" transform="translate(-2.5 2.6)"/><path class="cls-1" d="M442.3,96.2c-.2-1.8-1.2-3.2-3.2-3.2a2.52,2.52,0,0,0-2.8,2.6c0,1.8,1.8,2.9,4.3,4.8,2.7,2,3.6,3.3,3.6,5.4,0,3-3.1,4.7-6.2,4.7a12.73,12.73,0,0,1-4.4-.8c-.1,0-.2-.1-.2-.4v-3.7h.7c.3,2.8,2.1,4,4.1,4a3.24,3.24,0,0,0,3.3-3.2c0-1.6-.9-3-4.7-5.5-1.4-.9-3.1-1.9-3.1-4.7,0-2.3,2.5-4.1,5.5-4.1a10.24,10.24,0,0,1,3.5.5c.2,0,.2.1.2.3v3.4h-.6Z" transform="translate(-2.5 2.6)"/><path class="cls-1" d="M452.6,109.6c2.3-.3,2.2-.1,2.2-2.5v-3.9l-3.9-7.8c-.8-1.7-1.6-2.3-2.7-2.3v-.7h6.5v.7c-1.9,0-1.7,1-1.1,2.3l3.1,6.4,3.5-6.4c.9-1.6.1-2.3-1.4-2.3v-.7H464v.7c-.7,0-1.4.3-2.1,1.5l-4.3,7.7a3.81,3.81,0,0,0-.3,1.9v2.9c0,2.4-.1,2.2,2.2,2.5v.7h-6.9v-.7Z" transform="translate(-2.5 2.6)"/><path class="cls-1" d="M468.3,109.6c2.3-.3,2.2-.1,2.2-2.5V95.6c0-2.4.1-2.3-2.2-2.5v-.7h6.9v.7c-2.3.3-2.2.2-2.2,2.5v11.9c0,1.8,1,2,3.3,2,3.7,0,3.5-1,4.7-3.8h.6l-.8,4.6H468.3v-.7Z" transform="translate(-2.5 2.6)"/><path class="cls-1" d="M489,93.1c-1.4,0-2.4.4-1.6,2.9,1,3,2.5,7.4,3.8,11.3L496,95.6q.9-2.4-1.8-2.4v-.7h5.5v.7a2.2,2.2,0,0,0-2.1,1.5c-2.1,5.2-4.3,10.4-6.5,15.6h-1.3c-1.5-4.4-3.3-9.3-4.8-13.6-1-2.7-1.7-3.5-3-3.5v-.7h6.9v.6Z" transform="translate(-2.5 2.6)"/><path class="cls-1" d="M510.6,103.4l-2.7-8.3h0l-3,8.3Zm-6.2.9-1.2,3.4a1.28,1.28,0,0,0,1.3,1.8v.7h-4.6v-.7a2,2,0,0,0,1.8-1.3c1.1-2.3,4.1-10.6,6.2-16.2h1.4c1.7,5.1,4.3,13,5.2,15.2.6,1.4,1,2.2,2.1,2.2v.7h-5.9v-.7c1.6,0,1.8-.8,1.3-2l-1.1-3.3-6.5.2Z" transform="translate(-2.5 2.6)"/><path class="cls-1" d="M535.8,110.3c-4.1-4.8-8.3-9.8-12.4-14.7v11.3a5.9,5.9,0,0,0,.2,1.4c.1.9,1,1.3,2.7,1.4v.7H520v-.7c1.2-.1,2.1-.5,2.2-1.4a5.21,5.21,0,0,0,.2-1.4v-12a3.58,3.58,0,0,0-3-1.7v-.7H524l11.5,13.9h0V95.9a5.9,5.9,0,0,0-.2-1.4c-.1-.9-1-1.3-2.7-1.4v-.7h6.3v.7c-1.2.1-2.1.5-2.2,1.4,0,.4-.2.8-.2,1.4v14.4Z" transform="translate(-2.5 2.6)"/><path class="cls-1" d="M547.8,107.1c0,2.4-.1,2.2,2.2,2.5v.7h-6.9v-.7c2.3-.3,2.2-.1,2.2-2.5V95.6c0-2.4.1-2.2-2.2-2.5v-.7H550v.7c-2.3.3-2.2.1-2.2,2.5Z" transform="translate(-2.5 2.6)"/><path class="cls-1" d="M564.6,103.4l-2.7-8.3h0l-3,8.3Zm-6.1.9-1.2,3.4a1.28,1.28,0,0,0,1.3,1.8v.7H554v-.7a2,2,0,0,0,1.8-1.3c1.1-2.3,4.1-10.6,6.2-16.2h1.4c1.7,5.1,4.3,13,5.2,15.2.6,1.4,1,2.2,2.1,2.2v.7h-5.9v-.7c1.6,0,1.8-.8,1.3-2l-1.1-3.3-6.5.2Z" transform="translate(-2.5 2.6)"/><path class="cls-1" d="M110.2,3h21.5c7,0,12.6,1.6,16.7,4.7a14.49,14.49,0,0,1,6.2,12.1c0,4.9-1.8,8.7-5.4,11.3s-8.7,4-15.4,4a81.15,81.15,0,0,1-9.1-.6V51c0,3.6.5,6,1.4,7.4s2.7,2,5.3,2v1.7H110.2V60.4c2.6,0,4.3-.7,5.3-2.1s1.4-3.8,1.4-7v-37c0-3.5-.5-6-1.4-7.4s-2.7-2.1-5.3-2.1V3ZM132,5.3h-7.3V31.7a22.2,22.2,0,0,0,7.3,1c4.4,0,7.9-1.1,10.5-3.4a11.86,11.86,0,0,0,3.9-9.4,14.87,14.87,0,0,0-3.8-10.5C140,6.7,136.5,5.3,132,5.3Z" transform="translate(-2.5 2.6)"/><path class="cls-1" d="M183.1,52.7v2.7a21.75,21.75,0,0,1-6.8,6,17.55,17.55,0,0,1-8.3,1.8,19.39,19.39,0,0,1-14.1-5.4,18.17,18.17,0,0,1-5.6-13.6,20,20,0,0,1,5.3-14,17.06,17.06,0,0,1,13-5.7,16,16,0,0,1,11.1,4.3A13.6,13.6,0,0,1,182.4,39v.8H155.6v.5a28.16,28.16,0,0,0,1.8,10.5,15.26,15.26,0,0,0,5.4,7,12.38,12.38,0,0,0,7.3,2.5,11.74,11.74,0,0,0,6.1-1.5C178.1,57.8,180.3,55.8,183.1,52.7ZM155.7,38h19.9v-.7a10.67,10.67,0,0,0-2.8-7.8,9.51,9.51,0,0,0-7-2.9,9,9,0,0,0-7.1,3A14,14,0,0,0,155.7,38Z" transform="translate(-2.5 2.6)"/><path class="cls-1" d="M196.1,24.6v7.3c4.3-4.9,8.6-7.3,13.2-7.3a11.76,11.76,0,0,1,8.8,3.6c2.4,2.4,3.5,5.6,3.5,9.5V54.2c0,2.5.4,4.2,1.3,5s2.5,1.2,4.9,1.2v1.7H208.3V60.4c2.4,0,4.1-.3,5-.9s1.3-1.8,1.3-3.6V36.8a8.38,8.38,0,0,0-2.3-6.1,8.07,8.07,0,0,0-5.9-2.3c-3.4,0-6.9,2.4-10.4,7.1V53.3c0,3,.4,5,1.2,5.8s2.4,1.2,4.9,1.2V62H183V60.3c2.8,0,4.5-.5,5.1-1.3s1-2.8,1-5.7V32.7c0-2.2-.4-3.6-1.2-4.3s-2.4-1-4.9-1V25.7l11.4-1.1Z" transform="translate(-2.5 2.6)"/><path class="cls-1" d="M240.4,24.6v7.3c4.3-4.9,8.6-7.3,13.2-7.3a11.76,11.76,0,0,1,8.8,3.6c2.4,2.4,3.5,5.6,3.5,9.5V54.2c0,2.5.4,4.2,1.3,5s2.5,1.2,4.9,1.2v1.7H252.6V60.4c2.4,0,4.1-.3,5-.9s1.3-1.8,1.3-3.6V36.8a8.38,8.38,0,0,0-2.3-6.1,8.07,8.07,0,0,0-5.9-2.3c-3.4,0-6.9,2.4-10.4,7.1V53.3c0,3,.4,5,1.2,5.8s2.4,1.2,4.9,1.2V62H227.2V60.3c2.8,0,4.5-.5,5.1-1.3s1-2.8,1-5.7V32.7c0-2.2-.4-3.6-1.2-4.3s-2.4-1-4.9-1V25.7l11.4-1.1Z" transform="translate(-2.5 2.6)"/><path class="cls-1" d="M324.6,49.2h1.8l-3.6,12.9H280V60.4a6,6,0,0,0,5.2-2.3c1-1.5,1.5-4,1.5-7.6V13.4c0-3.2-.5-5.4-1.4-6.7s-2.7-1.9-5.3-1.9V3h21.1V4.7c-2.4,0-4,.7-5,2.2s-1.5,3.8-1.5,7.1V53.4c0,2.2.5,3.7,1.4,4.5s2.7,1.2,5.3,1.2H313c3.6,0,6.1-.6,7.6-1.9S323.4,53.3,324.6,49.2Z" transform="translate(-2.5 2.6)"/><path class="cls-1" d="M338.7,24.6h1.8V55.3c0,2,.4,3.4,1.3,4s2.5,1,4.8,1V62h-20V60.3c2.9,0,4.8-.3,5.6-1s1.3-2,1.3-4.1V32.7c0-2.2-.4-3.7-1.2-4.4s-2.7-1.1-5.7-1.1V25.5ZM337.1,5.7A4,4,0,0,1,340.2,7a4.16,4.16,0,0,1,1.3,3.1,4.38,4.38,0,0,1-1.3,3.2,4.16,4.16,0,0,1-3.1,1.3,4.38,4.38,0,0,1-3.2-1.3,4.48,4.48,0,0,1-1.4-3.2A4,4,0,0,1,333.8,7,4.77,4.77,0,0,1,337.1,5.7Z" transform="translate(-2.5 2.6)"/><path class="cls-1" d="M355.4-2.6h1.8V30a16.35,16.35,0,0,1,5.6-4,15.93,15.93,0,0,1,6.7-1.5,16.1,16.1,0,0,1,12,5.1,17.35,17.35,0,0,1,4.9,12.6,17.93,17.93,0,0,1-6.6,14.4c-4.4,3.8-10.5,5.6-18.3,5.6a77.2,77.2,0,0,1-11.3-1.1V6.4c0-2.9-.4-4.6-1.1-5.3s-2.5-1-5.4-1V-1.6Zm1.8,35.3V53.5c0,2.7.5,4.6,1.4,5.6s2.5,1.5,4.8,1.5c4.7,0,8.5-1.5,11.2-4.6s4.1-7.3,4.1-12.8c0-4.6-1.2-8.4-3.6-11.3s-5.2-4.4-8.6-4.4S360,29.2,357.2,32.7Z" transform="translate(-2.5 2.6)"/><path class="cls-1" d="M399.9,24.6v7.9a73.27,73.27,0,0,1,7.8-6.1,9.29,9.29,0,0,1,4.7-1.8,10.25,10.25,0,0,1,6.7,2.9L416.3,34c-3.9-2.1-6.8-3.2-8.7-3.2-2.1,0-4.7,1.5-7.8,4.4V55.3c0,2,.4,3.4,1.3,4.1s2.5,1.1,4.8,1.1v1.7H386.6V60.5c2.5,0,4.2-.4,5-1.2s1.2-2.7,1.2-5.8V33.6c0-2.5-.4-4.1-1.3-4.9s-2.9-1.1-6.3-1.1V25.9L398,24.8l1.9-.2Z" transform="translate(-2.5 2.6)"/><path class="cls-1" d="M430,63.2a10.73,10.73,0,0,1-7.3-2.8,9.27,9.27,0,0,1-3.1-6.9,8.6,8.6,0,0,1,2.6-6.3c1.7-1.7,5.3-3.2,10.7-4.8a28.54,28.54,0,0,0,6.8-2.4V37.3a9.06,9.06,0,0,0-2.2-6.4,7.76,7.76,0,0,0-5.9-2.4,9.34,9.34,0,0,0-6,2.1,11.38,11.38,0,0,0-3.7,5.7l-1.9-.5a13.72,13.72,0,0,1,13.5-11.2,13.24,13.24,0,0,1,9.5,3.5,13.19,13.19,0,0,1,3.7,9.8V53.5a15.35,15.35,0,0,0,.4,4.5,1.59,1.59,0,0,0,1.6,1.2,1.46,1.46,0,0,0,1.3-.7,17.26,17.26,0,0,0,1.2-2.8H453a8.84,8.84,0,0,1-2.1,5.4,6.55,6.55,0,0,1-5,2c-3,0-5-1.7-6.2-5.2a20.14,20.14,0,0,1-4.8,4.1A9.62,9.62,0,0,1,430,63.2Zm9.8-8.6V42.2c-1,.4-2.5,1-4.5,1.7-3.7,1.2-6,2.5-7,3.7a7.65,7.65,0,0,0-1.5,5,7.06,7.06,0,0,0,1.6,4.7,5,5,0,0,0,3.9,2,8.21,8.21,0,0,0,4.3-1.3A8,8,0,0,0,439.8,54.6Z" transform="translate(-2.5 2.6)"/><path class="cls-1" d="M466.8,24.6v7.9a64.29,64.29,0,0,1,7.8-6.1,9.29,9.29,0,0,1,4.7-1.8,10.25,10.25,0,0,1,6.7,2.9L483.2,34c-3.9-2.1-6.8-3.2-8.7-3.2-2.1,0-4.7,1.5-7.8,4.4V55.3c0,2,.4,3.4,1.3,4.1s2.5,1.1,4.8,1.1v1.7H453.5V60.5c2.5,0,4.2-.4,5-1.2s1.2-2.7,1.2-5.8V33.6c0-2.5-.4-4.1-1.3-4.9s-2.9-1.1-6.3-1.1V25.9l12.8-1.1,1.9-.2Z" transform="translate(-2.5 2.6)"/><path class="cls-1" d="M500.1,24.6h1.8V55.3c0,2,.4,3.4,1.3,4s2.5,1,4.8,1V62H488V60.3c2.9,0,4.8-.3,5.6-1s1.3-2,1.3-4.1V32.7c0-2.2-.4-3.7-1.2-4.4s-2.7-1.1-5.7-1.1V25.5ZM498.5,5.7A4,4,0,0,1,501.6,7a4.57,4.57,0,0,1,1.3,3.1,4.38,4.38,0,0,1-1.3,3.2,4.16,4.16,0,0,1-3.1,1.3,4.38,4.38,0,0,1-3.2-1.3,4.48,4.48,0,0,1-1.4-3.2A4,4,0,0,1,495.2,7,4.45,4.45,0,0,1,498.5,5.7Z" transform="translate(-2.5 2.6)"/><path class="cls-1" d="M542.3,52.7v2.7a21.75,21.75,0,0,1-6.8,6,17.55,17.55,0,0,1-8.3,1.8,19.39,19.39,0,0,1-14.1-5.4,18.17,18.17,0,0,1-5.6-13.6,20,20,0,0,1,5.3-14,17.06,17.06,0,0,1,13-5.7,16,16,0,0,1,11.1,4.3A13.26,13.26,0,0,1,541.6,39v.8H514.8v.5a28.16,28.16,0,0,0,1.8,10.5,15.26,15.26,0,0,0,5.4,7,12.38,12.38,0,0,0,7.3,2.5,11.74,11.74,0,0,0,6.1-1.5C537.3,57.8,539.5,55.8,542.3,52.7ZM514.9,38h19.9v-.7a10.67,10.67,0,0,0-2.8-7.8,9.51,9.51,0,0,0-7-2.9,9,9,0,0,0-7.1,3A14,14,0,0,0,514.9,38Z" transform="translate(-2.5 2.6)"/><path class="cls-1" d="M569.6,24.6V35.8h-2.1a10.7,10.7,0,0,0-3-6.7,8.22,8.22,0,0,0-6.1-2.5A6.82,6.82,0,0,0,554,28a4.46,4.46,0,0,0-1.7,3.6,5.61,5.61,0,0,0,1.5,3.9c1,1.1,3.2,2.5,6.7,4,4.4,2,7.3,3.9,8.8,5.8A11.11,11.11,0,0,1,568,59.8a11.34,11.34,0,0,1-8.1,3.3,16.93,16.93,0,0,1-6.4-1.8,10.76,10.76,0,0,0-2.9-1,2,2,0,0,0-1.6.7,3.7,3.7,0,0,0-.8,1.8h-1.8V50.4h1.8a13,13,0,0,0,4.2,7.8,11.21,11.21,0,0,0,7.5,2.9,6.15,6.15,0,0,0,6.3-6.3,6.81,6.81,0,0,0-1.7-4.5c-1.1-1.3-3.6-2.7-7.3-4.4-4.2-1.9-7-3.6-8.3-5.2a9.07,9.07,0,0,1-2-5.8,9.81,9.81,0,0,1,3.3-7.4,10.87,10.87,0,0,1,7.8-3.1,12,12,0,0,1,4.6,1,7.52,7.52,0,0,0,2.9.7,2.4,2.4,0,0,0,2.2-1.7l1.9.2Z" transform="translate(-2.5 2.6)"/></svg>