<?xml version="1.0" encoding="utf-8"?>
<!-- Generator: Adobe Illustrator 24.1.1, SVG Export Plug-In . SVG Version: 6.00 Build 0)  -->
<svg version="1.1" id="Layer_1" xmlns="http://www.w3.org/2000/svg" xmlns:xlink="http://www.w3.org/1999/xlink" x="0px" y="0px"
	 viewBox="0 0 574 121" style="enable-background:new 0 0 574 121;" xml:space="preserve">
<style type="text/css">
	.st0{fill:#011F5B;}
	.st1{fill:#FFFFFF;}
	.st2{fill:#990000;}
</style>
<g>
	<rect x="110.2" y="73.8" class="st0" width="460.5" height="1.6"/>
	<g>
		<path class="st1" d="M100,1.2H2.5v48.6C2.4,71,14.2,86.3,24,95.4c10.8,10,22.8,15.8,26.8,16.7l0.5,0.1l0.5-0.1
			c4-0.9,15.9-6.7,26.8-16.7c9.8-9.1,21.6-24.5,21.5-45.6L100,1.2"/>
		<path class="st2" d="M94,21.5L94,21.5c0.1,0.1,0.3,0.2,0.4,0.4c0.1,0.2,0.2,0.4,0.2,0.6s-0.1,0.4-0.2,0.5
			c-0.1,0.2-0.3,0.3-0.4,0.4c-0.2,0.2-0.4,0.3-0.4,0.6v1.7H83.4H73.2V24c0-0.3-0.2-0.5-0.4-0.6c-0.1-0.1-0.3-0.2-0.4-0.4
			c-0.1-0.2-0.2-0.4-0.2-0.6s0.1-0.4,0.2-0.6s0.3-0.3,0.4-0.4c0.2-0.2,0.4-0.3,0.4-0.6v-5.6c0-0.3-0.2-0.5-0.4-0.6
			c-0.1-0.1-0.3-0.2-0.4-0.4c-0.1-0.2-0.2-0.4-0.2-0.6s0.1-0.4,0.2-0.6c0.1-0.1,0.3-0.3,0.4-0.4c0.2-0.2,0.4-0.3,0.4-0.6v-1.8h0.3
			c1.2,0,2.2,0,3-0.4c0.3-0.1,0.6-0.3,0.9-0.5c0.6-0.4,1.3-0.8,2.4-0.8c0.9,0,1.6,0.3,2.3,0.6c0.5,0.2,1,0.4,1.3,0.4h0.1
			c0.4,0,0.8-0.2,1.3-0.4c0.7-0.3,1.5-0.6,2.3-0.6c1.1,0,1.8,0.4,2.4,0.8c0.3,0.2,0.6,0.4,0.9,0.5c0.7,0.3,1.8,0.4,3,0.4h0.3V12
			c0,0.3,0.2,0.5,0.4,0.6c0.1,0.1,0.3,0.2,0.4,0.4c0.1,0.2,0.2,0.4,0.2,0.6s-0.1,0.4-0.2,0.6c-0.1,0.1-0.3,0.3-0.4,0.4
			c-0.2,0.2-0.4,0.3-0.4,0.6v5.6C93.6,21.2,93.8,21.4,94,21.5 M68.9,24.5c-1.6,2.5-4.6,3.1-4.8,3.2c-0.6,0.1-1.2,0.2-1.8,0.2
			c-3.2,0-6.1-1.4-9.1-2.9c-0.3-0.2-0.7-0.4-1.1-0.6c-1.9-1-4.6-2.5-6.8-2.5c-0.7,0-1.3,0.1-1.8,0.4h-0.1v0.1c0,0.3-0.1,0.6-0.2,0.8
			c-0.4,1-1.5,2-2.1,2.4c-1.3,0.9-2.9,1.9-4.9,1.9c-0.3,0-0.6,0-0.8-0.1c-0.4-0.1-0.7-0.4-0.9-0.6c-0.1-0.1-0.2-0.3-0.3-0.5
			c-0.1-0.1-0.1-0.3-0.1-0.5v-0.1H34c-0.8-0.2-1.2-0.7-1.2-1.4c0-0.5,0.4-0.9,0.7-1.3c0.5-0.6,1-1.1,0.2-1.8
			c-0.1-0.1-0.1-0.1-0.2-0.2c-0.1-0.1-0.2-0.1-0.3-0.3c-0.6-0.7-0.3-2.1,0-3v-0.1c0.3-0.9,0.6-1.9,1.2-3c0.7-1.4,1.6-3,2.8-4h0.1
			h0.1c0,0,0.1,0.3,0.4,0.6l0.2,0.3l0.1-0.4c0.4-1,0.9-1.7,1.7-1.9c0.8-0.3,1.6,0.1,2,0.4L42,9.7l0.1-0.2c0.3-0.4,0.7-0.9,1.4-0.9
			c0.8,0,1.5,0.5,1.8,0.9l0.1,0.1l0.1-0.1c0.4-0.3,1.3-1,2.3-0.9c0.9,0.1,1.3,0.9,1.4,1.3l0.1,0.2l0.2-0.1c0.4-0.2,1.3-0.5,2.1,0
			c0.5,0.3,0.6,0.9,0.5,1.3v0.2h0.2c0.6-0.1,1.7-0.2,2.3,0.5c0.5,0.5,0.5,1.2,0.5,1.7v0.2h0.2c0.5-0.1,1.2,0,1.6,0.6
			c0.3,0.4,0.2,1,0.1,1.3L56.9,16h0.2c0.3,0.1,0.8,0.3,1,0.7c0.1,0.3,0.1,0.9-0.1,1.5l-0.1,0.2l0.2,0.1c0.3,0.1,0.7,0.4,1,0.9
			s0.2,1.1,0,1.9v0.1l0.1,0.1c0.7,0.6,1.4,1.2,2,1.6c1.4,1,3.5,1.5,4.9,0.3c0.6-0.5,0.8-1.3,0.6-2s-0.6-1.1-1.2-1.3
			c-1.1-0.2-2,0.8-2.7,1.8h-0.1c0,0-0.1,0-0.1-0.1C62,20.3,61.9,19,62.5,18c0.5-0.8,1.4-1.4,2.6-1.6h0.2v-0.2c0-1.8,0.4-3.1,1.3-4
			c0.5-0.5,1.5-1,3.2-0.8h0.1v0.1c-1.2,2.9-0.9,4-0.3,6.4c0.1,0.2,0.1,0.4,0.2,0.7C70.1,21,69.9,22.9,68.9,24.5 M29.8,21.5
			L29.8,21.5c0.1,0.1,0.3,0.2,0.4,0.4c0.1,0.2,0.2,0.4,0.2,0.6s-0.1,0.4-0.2,0.5c-0.1,0.2-0.3,0.3-0.4,0.4c-0.2,0.2-0.4,0.3-0.4,0.6
			v1.7H19.2H9V24c0-0.3-0.2-0.5-0.4-0.6c-0.1-0.1-0.3-0.2-0.4-0.4C8.1,22.8,8,22.6,8,22.4s0.1-0.4,0.2-0.6s0.3-0.3,0.4-0.4
			C8.8,21.2,9,21.1,9,20.8v-5.6c0-0.3-0.2-0.5-0.4-0.6c-0.1-0.1-0.3-0.2-0.4-0.4C8.1,14,8,13.8,8,13.6s0.1-0.4,0.2-0.6
			c0.1-0.1,0.3-0.3,0.4-0.4C8.8,12.4,9,12.3,9,12v-1.8h0.3c1.2,0,2.2,0,3-0.4c0.3-0.1,0.6-0.3,0.9-0.5c0.6-0.4,1.3-0.8,2.4-0.8
			c0.8,0,1.6,0.3,2.3,0.6c0.5,0.2,1,0.4,1.3,0.4h0.1c0.4,0,0.8-0.2,1.3-0.4c0.7-0.3,1.5-0.6,2.3-0.6c1.1,0,1.8,0.4,2.4,0.8
			c0.3,0.2,0.6,0.4,0.9,0.5c0.7,0.3,1.8,0.4,3,0.4h0.3V12c0,0.3,0.2,0.5,0.4,0.6c0.1,0.1,0.3,0.2,0.4,0.4c0.1,0.2,0.2,0.4,0.2,0.6
			s-0.1,0.4-0.2,0.6c-0.1,0.1-0.3,0.3-0.4,0.4c-0.2,0.2-0.4,0.3-0.4,0.6v5.6C29.4,21.2,29.6,21.4,29.8,21.5 M5,3.8
			c0,0,0.1,28.2,0,28.1h92.6V3.8L5,3.8L5,3.8z"/>
		<path class="st0" d="M36.9,20.3c0.3,0,0.6,0.1,0.9,0.3c0.1,0.1,0.2,0.2,0.3,0.2c0.2,0.2,0.2,0.5,0,0.7s-0.5,0.4-0.6,0.5
			c-0.4,0.3-1,0.7-1.5,0.4c-0.2-0.2,0.2-0.5,0-1.3C35.8,20.6,36.4,20.3,36.9,20.3"/>
		<path class="st0" d="M37,11.2c-1,1-1.8,2.4-2.4,3.7c-0.5,1-0.9,2-1.1,2.9v0.1c-0.2,0.7-0.5,2.1-0.1,2.6c0.1,0.1,0.2,0.1,0.2,0.2
			c0.1,0.1,0.2,0.1,0.3,0.2c1,1,0.3,1.8-0.2,2.4c-0.3,0.4-0.6,0.7-0.6,1c0,0.7,0.9,1,1.1,1c0.1,0,0.2,0.1,0.2,0.3
			c0,0.2,0,0.4,0.1,0.5s0.1,0.3,0.2,0.4c0.2,0.2,0.4,0.4,0.7,0.5c0.2,0.1,0.4,0.1,0.7,0.1c1.9,0,3.4-0.9,4.7-1.8
			c0.8-0.5,1.7-1.5,2-2.2c0.1-0.2,0.1-0.4,0.1-0.6l-1.3-0.2l0,0c-0.1,0-0.2-0.1-0.3-0.3c0-0.3,0.2-0.4,0.7-0.7
			c0.1-0.1,0.3-0.2,0.4-0.3c0.7-0.5,1.3-0.9,1.6-1.1c-0.4-0.4-0.7-0.9-0.9-1.3c-0.2-0.3-0.4-0.6-0.5-0.7c-0.6-0.7-1.8-1.1-2.8-0.5
			c-0.4,0.2-0.7,0.5-1.1,0.8c-0.3,0.3-0.6,0.5-0.9,0.7c-0.1,0.1-0.3,0.1-0.4-0.1c-0.1-0.1-0.1-0.3,0-0.4l0.1-0.1
			c0.4-0.4,1.4-1.4,1.4-2C39,14.6,37.5,12.1,37,11.2 M45.3,21.4c2.3,0,4.9,1.4,7,2.6c0.4,0.2,0.8,0.4,1.1,0.6
			c3.5,1.8,7,3.4,10.7,2.7c0,0,3-0.6,4.5-3c0.9-1.5,1.1-3.3,0.5-5.5c-0.1-0.2-0.1-0.5-0.2-0.7c-0.6-2.3-1-3.5,0.1-6.3
			c-1.3-0.1-2,0.4-2.5,0.7c-0.8,0.8-1.2,2.1-1.2,3.9c0,0.2-0.1,0.3-0.3,0.3c-1.1,0.1-2.1,0.6-2.6,1.4c-0.4,0.8-0.5,1.8-0.1,2.9
			c0.6-0.8,1.5-1.8,2.8-1.5c0.8,0.2,1.4,0.8,1.5,1.6c0.2,0.9-0.1,1.9-0.7,2.5c-1.6,1.3-3.9,0.8-5.4-0.3c-1.8-1.3-3.5-2.9-5.3-4.9
			c-0.3-0.4-0.6-0.7-0.9-1.1c-1.1-1.3-2.3-2.7-3.8-3.8c-2.2-1.7-4.8-2-6.6-1.9c-1.2,0-3.7,0.4-5.4,1.4c0.5,1.1,1,2.3,1,3.2
			c0,0.2,0,0.3-0.1,0.5c1.2-0.7,2.6-0.2,3.4,0.7c0.2,0.2,0.4,0.5,0.6,0.8c0.3,0.5,0.7,1,1.1,1.4c0.1,0.1,0.1,0.1,0.1,0.2
			S44.5,20,44.5,20s-0.8,0.5-1.8,1.3c-0.1,0.1-0.3,0.2-0.4,0.3c0,0-0.1,0-0.1,0.1l0.9,0.2C43.8,21.5,44.6,21.4,45.3,21.4 M62.3,28
			c-3.2,0-6.2-1.4-9.2-3c-0.3-0.2-0.7-0.4-1.1-0.6c-2.4-1.3-6.1-3.3-8.5-2.1c0,0.3-0.1,0.6-0.2,0.9c-0.4,1-1.6,2-2.2,2.5
			c-1.3,1-3,1.9-5,1.9c-0.3,0-0.6,0-0.9-0.1c-0.4-0.1-0.7-0.4-1-0.7c-0.1-0.1-0.2-0.3-0.3-0.5s-0.1-0.3-0.1-0.5
			c-0.9-0.3-1.4-0.8-1.4-1.5c0-0.5,0.4-1,0.7-1.4c0.6-0.7,0.8-1,0.3-1.6c-0.1-0.1-0.1-0.1-0.2-0.2c-0.1-0.1-0.2-0.2-0.3-0.3
			c-0.7-0.8-0.3-2.3-0.1-3.1v-0.1c0.3-1,0.6-1.9,1.2-3c0.7-1.5,1.6-3.1,2.9-4.1c0.1-0.1,0.1-0.1,0.2-0.1c0.1,0,0.2,0.1,0.2,0.1
			s0.5,0.8,1.1,1.8c2.2-1.3,5.2-1.4,5.6-1.5c1.9-0.1,4.7,0.2,7,2c1.5,1.1,2.7,2.5,3.8,3.9c0.3,0.4,0.6,0.7,0.9,1.1
			c1.8,2,3.5,3.6,5.2,4.9c1.3,1,3.3,1.5,4.7,0.3c0.5-0.4,0.7-1.1,0.6-1.9c-0.1-0.6-0.6-1-1.1-1.2c-1-0.2-1.8,0.8-2.5,1.8
			c-0.1,0.1-0.2,0.1-0.3,0.1s-0.2-0.1-0.2-0.2c-0.7-1.6-0.7-2.9-0.1-4c0.5-0.9,1.5-1.5,2.7-1.7c0-1.9,0.4-3.3,1.4-4.1
			c0.6-0.5,1.6-1.1,3.3-0.8c0.1,0,0.2,0.1,0.2,0.1c0.1,0.1,0.1,0.2,0,0.3c-1.2,2.9-0.9,4-0.3,6.3c0.1,0.2,0.1,0.4,0.2,0.7
			c0.6,2.3,0.4,4.3-0.6,5.9c-1.6,2.6-4.8,3.2-4.9,3.3C63.6,28,62.9,28,62.3,28"/>
		<path class="st0" d="M35,26c-0.3,0-0.6,0-0.9,0c-0.2,0-0.3-0.2-0.3-0.3c0-0.2,0.2-0.3,0.3-0.3c1.3,0.2,3.3,0,5-1.8
			c0.1-0.1,0.3-0.1,0.4,0c0.1,0.1,0.1,0.3,0,0.4C38.4,25.3,36.8,26,35,26"/>
		<path class="st0" d="M58.6,21.6h-0.1c-0.1-0.1-0.2-0.2-0.1-0.4c0.3-0.7,0.4-1.3,0.1-1.7c-0.3-0.6-1-0.8-1-0.8
			c-0.1,0-0.1-0.1-0.2-0.1c0-0.1,0-0.2,0-0.2c0.1-0.3,0.3-1.1,0.2-1.5s-0.8-0.5-1-0.5c-0.1,0-0.2-0.1-0.2-0.1c0-0.1-0.1-0.2,0-0.3
			c0.1-0.2,0.3-0.9,0.1-1.2c-0.4-0.7-1.6-0.3-1.6-0.3c-0.1,0-0.2,0-0.3-0.1s-0.1-0.2-0.1-0.3c0,0,0.3-1-0.3-1.7
			c-0.8-0.8-2.4-0.3-2.4-0.3c-0.1,0-0.2,0-0.3-0.1s-0.1-0.2-0.1-0.3c0,0,0.3-0.9-0.3-1.3c-0.9-0.6-2,0.2-2,0.2
			c-0.1,0.1-0.2,0.1-0.3,0c-0.1,0-0.1-0.1-0.2-0.2c0,0-0.2-1.2-1.1-1.3c-1.1-0.1-2.2,1-2.2,1c-0.1,0.1-0.1,0.1-0.2,0.1
			s-0.1,0-0.2-0.1c0,0-0.8-1-1.7-0.9c-0.9,0-1.3,1-1.3,1c0,0.1-0.1,0.1-0.2,0.2c-0.1,0-0.2,0-0.3-0.1c0,0-0.9-0.9-1.8-0.5
			c-1.2,0.4-1.5,1.9-1.6,2.3l0,0c0,0.1-0.2,0.2-0.3,0.2s-0.2-0.2-0.2-0.3l0,0c0.1-0.5,0.5-2.2,1.9-2.7C40.2,9,41,9.4,41.4,9.7
			c0.2-0.4,0.7-1,1.6-1c0.9,0,1.6,0.6,2,0.9c0.4-0.4,1.4-1.1,2.4-0.9c0.9,0.1,1.4,0.8,1.5,1.4c0.5-0.2,1.4-0.5,2.2,0
			c0.6,0.4,0.6,1,0.6,1.5c0.6-0.1,1.8-0.2,2.5,0.5c0.6,0.6,0.6,1.4,0.5,1.8c0.5-0.1,1.3,0,1.8,0.6c0.3,0.5,0.2,1,0.1,1.4
			c0.4,0.1,0.9,0.3,1.1,0.8c0.2,0.5,0,1.2-0.1,1.6c0.3,0.1,0.8,0.4,1.1,1S59,20.7,58.6,21.6C58.8,21.5,58.7,21.6,58.6,21.6"/>
		<path class="st0" d="M57.2,25.4L57.2,25.4c-0.2,0-0.3-0.2-0.3-0.3c0.1-1-0.5-1.2-1-1.4c-0.1,0-0.3-0.1-0.4-0.1
			c-0.3-0.2-0.3-0.5-0.3-0.9s0-0.8-0.3-1.2c-0.5-0.6-1.5-0.2-1.5-0.2c-0.1,0-0.2,0-0.3,0C53,21.2,53,21.1,53,21c0,0,0.2-1.1-0.5-1.7
			c-0.5-0.5-1.6-0.4-1.9-0.3c-0.1,0-0.2,0-0.2-0.1c-0.1,0-0.1-0.1-0.1-0.2c0.1-0.7-0.2-1.3-0.8-1.6c-0.4-0.3-1-0.3-1.4-0.1
			c-1.2,0.6-1.6,0.7-2.8-0.2c-0.4-0.3-0.8-0.4-1.1-0.3c-0.5,0.1-0.9,0.5-1.2,1.2c-0.1,0.1-0.2,0.2-0.4,0.1s-0.2-0.2-0.1-0.4
			c0.4-0.8,0.9-1.3,1.6-1.5c0.5-0.1,1.1,0,1.6,0.4c1,0.7,1.3,0.7,2.2,0.2c0.6-0.3,1.4-0.3,2,0.1s1,1,1,1.8c0.5-0.1,1.4-0.1,2.1,0.4
			c0.6,0.5,0.7,1.3,0.7,1.8c0.5-0.1,1.2-0.1,1.7,0.5c0.4,0.5,0.4,1.1,0.5,1.5c0,0.1,0,0.4,0,0.4c0.1,0,0.1,0.1,0.3,0.1
			c0.5,0.2,1.6,0.5,1.4,2C57.5,25.3,57.4,25.4,57.2,25.4"/>
		<path class="st0" d="M30,22.5c0,0.1,0,0.2-0.1,0.3c-0.1,0.1-0.2,0.2-0.3,0.3C29.3,23.3,29,23.6,29,24v1.3h-9.8l0,0H9.4V24
			c0-0.5-0.3-0.7-0.6-0.9c-0.1-0.1-0.3-0.2-0.3-0.3c-0.1-0.1-0.1-0.2-0.1-0.3l0,0l0,0c0-0.1,0-0.2,0.1-0.3c0.1-0.1,0.2-0.2,0.3-0.3
			c0.3-0.2,0.6-0.5,0.6-0.9v-5.6c0-0.5-0.3-0.7-0.6-0.9c-0.1-0.1-0.3-0.2-0.3-0.3c-0.1-0.1-0.1-0.2-0.1-0.3l0,0l0,0
			c0-0.1,0-0.2,0.1-0.3c0.1-0.1,0.2-0.2,0.3-0.3c0.3-0.2,0.6-0.5,0.6-0.9v-1.3l0,0c0.5,0,1,0,1.5,0v13h7.2c0.1,0.5,0.6,0.9,1.2,0.9
			c0.6,0,1-0.4,1.2-0.9h7.1v-13c0.5,0,1,0,1.5,0l0,0v1.3c0,0.5,0.3,0.7,0.6,0.9c0.1,0.1,0.2,0.2,0.3,0.3c0.1,0.1,0.1,0.2,0.1,0.3
			l0,0l0,0c0,0.1,0,0.2-0.1,0.3c-0.1,0.1-0.2,0.2-0.3,0.3c-0.3,0.2-0.6,0.5-0.6,0.9V21c0,0.5,0.3,0.7,0.6,0.9
			c0.1,0.1,0.2,0.2,0.3,0.3S30,22.4,30,22.5L30,22.5L30,22.5L30,22.5z M12.3,10.5c0.3-0.1,0.6-0.3,0.9-0.5c0.6-0.4,1.2-0.8,2.2-0.8
			c0.8,0,1.5,0.3,2.2,0.6c0.5,0.2,0.9,0.4,1.3,0.4v11.4h-0.1c-0.6,0-1.3,0.3-2.2,0.6c-0.3,0.1-0.6,0.2-0.9,0.3
			c-0.9,0.3-1.8,0.3-2.6,0.3c-0.6,0-1.1,0-1.6,0.1v-12C11.8,10.6,12.1,10.6,12.3,10.5 M20.7,9.7c0.7-0.3,1.4-0.6,2.2-0.6
			c0.9,0,1.5,0.4,2.1,0.8c0.3,0.2,0.6,0.4,0.9,0.5c0.3,0.1,0.6,0.2,0.9,0.3v12c-0.5-0.1-1-0.1-1.6-0.1c-0.9,0-1.8,0-2.6-0.3
			c-0.3-0.1-0.6-0.2-0.9-0.3c-0.9-0.3-1.7-0.5-2.2-0.6l0,0V10C19.9,10.1,20.3,9.9,20.7,9.7 M29.9,21.4c-0.2-0.2-0.4-0.3-0.4-0.5
			v-5.6c0-0.2,0.1-0.3,0.4-0.5c0.1-0.1,0.3-0.2,0.4-0.4c0.1-0.2,0.2-0.4,0.2-0.7c0-0.2-0.1-0.5-0.2-0.7c-0.1-0.2-0.3-0.3-0.4-0.4
			c-0.2-0.2-0.4-0.3-0.4-0.5v-2h-0.4c-1.1,0-2.2,0-2.9-0.3c-0.3-0.1-0.6-0.3-0.8-0.5c-0.6-0.4-1.4-0.9-2.5-0.9
			c-0.9,0-1.7,0.3-2.4,0.6c-0.5,0.2-0.9,0.4-1.2,0.4h-0.1l0,0h-0.1c-0.3,0-0.8-0.2-1.2-0.4c-0.7-0.3-1.5-0.6-2.4-0.6
			c-1.1,0-1.8,0.5-2.5,0.9c-0.3,0.2-0.6,0.4-0.8,0.5c-0.7,0.3-1.8,0.3-2.9,0.3H8.9v2c0,0.2-0.1,0.3-0.4,0.5
			c-0.1,0.1-0.3,0.3-0.4,0.4c-0.1,0.2-0.2,0.4-0.2,0.7c0,0.2,0.1,0.5,0.2,0.7s0.3,0.3,0.4,0.4c0.2,0.2,0.4,0.3,0.4,0.5v5.6
			c0,0.2-0.1,0.3-0.4,0.5c-0.1,0.1-0.3,0.3-0.4,0.4C8,22,7.9,22.2,7.9,22.5c0,0.2,0.1,0.5,0.2,0.7s0.3,0.3,0.4,0.4
			c0.2,0.2,0.4,0.3,0.4,0.5V26l0,0l0,0h10.4h10.4l0,0l0,0v-1.9c0-0.2,0.1-0.3,0.4-0.5c0.1-0.1,0.3-0.3,0.4-0.4
			c0.1-0.2,0.2-0.4,0.2-0.7c0-0.2-0.1-0.5-0.2-0.7C30.2,21.6,30.1,21.5,29.9,21.4"/>
		<path class="st0" d="M94.1,22.5c0,0.1,0,0.2-0.1,0.3c-0.1,0.1-0.2,0.2-0.3,0.3c-0.3,0.2-0.6,0.5-0.6,0.9v1.3h-9.8l0,0h-9.8V24
			c0-0.5-0.3-0.7-0.6-0.9c-0.1-0.1-0.2-0.2-0.3-0.3c-0.1-0.1-0.1-0.2-0.1-0.3l0,0l0,0c0-0.1,0-0.2,0.1-0.3c0.1-0.1,0.2-0.2,0.3-0.3
			c0.3-0.2,0.6-0.5,0.6-0.9v-5.6c0-0.5-0.3-0.7-0.6-0.9c-0.1-0.1-0.2-0.2-0.3-0.3c-0.1-0.1-0.1-0.2-0.1-0.3l0,0l0,0
			c0-0.1,0-0.2,0.1-0.3c0.1-0.1,0.2-0.2,0.3-0.3c0.3-0.2,0.6-0.5,0.6-0.9v-1.3l0,0c0.5,0,1,0,1.5,0v13h7.2c0.1,0.5,0.6,0.9,1.2,0.9
			c0.6,0,1-0.4,1.1-0.9h7.2v-13c0.5,0,1,0,1.5,0l0,0v1.3c0,0.5,0.3,0.7,0.6,0.9c0.1,0.1,0.2,0.2,0.3,0.3c0.1,0.1,0.1,0.2,0.1,0.3
			l0,0l0,0c0,0.1,0,0.2-0.1,0.3c-0.1,0.1-0.2,0.2-0.3,0.3c-0.3,0.2-0.6,0.5-0.6,0.9V21c0,0.5,0.3,0.7,0.6,0.9
			c0.1,0.1,0.2,0.2,0.3,0.3S94.2,22.4,94.1,22.5L94.1,22.5L94.1,22.5L94.1,22.5z M76.5,10.5c0.3-0.1,0.6-0.3,0.9-0.5
			c0.6-0.4,1.2-0.8,2.1-0.8c0.8,0,1.5,0.3,2.2,0.6c0.5,0.2,0.9,0.4,1.3,0.4v11.4h-0.1c-0.6,0-1.3,0.3-2.2,0.6
			c-0.3,0.1-0.6,0.2-0.9,0.3c-0.9,0.3-1.8,0.3-2.6,0.3c-0.6,0-1.1,0-1.6,0.1v-12C76,10.6,76.3,10.6,76.5,10.5 M84.9,9.7
			c0.7-0.3,1.4-0.6,2.2-0.6c0.9,0,1.5,0.4,2.1,0.8c0.3,0.2,0.6,0.4,0.9,0.5c0.3,0.1,0.6,0.2,0.9,0.3v12c-0.5-0.1-1-0.1-1.6-0.1
			c-0.9,0-1.8,0-2.6-0.3c-0.3-0.1-0.6-0.2-0.9-0.3c-0.9-0.3-1.7-0.5-2.2-0.6l0,0V10C84,10.1,84.4,9.9,84.9,9.7 M94.1,21.4
			c-0.2-0.2-0.4-0.3-0.4-0.5v-5.6c0-0.2,0.1-0.3,0.4-0.5c0.1-0.1,0.3-0.2,0.4-0.4c0.1-0.2,0.2-0.4,0.2-0.7c0-0.2-0.1-0.5-0.2-0.7
			c-0.1-0.2-0.3-0.3-0.4-0.4c-0.2-0.2-0.4-0.3-0.4-0.5v-2h-0.4c-1.1,0-2.2,0-2.9-0.3c-0.3-0.1-0.6-0.3-0.8-0.5
			c-0.6-0.4-1.4-0.9-2.5-0.9c-0.9,0-1.7,0.3-2.4,0.6c-0.5,0.2-0.9,0.4-1.2,0.4h-0.1l0,0h-0.1c-0.3,0-0.8-0.2-1.2-0.4
			c-0.7-0.3-1.5-0.6-2.4-0.6c-1.1,0-1.9,0.5-2.5,0.9c-0.3,0.2-0.6,0.4-0.8,0.5c-0.7,0.3-1.9,0.3-2.9,0.3h-0.4v2
			c0,0.2-0.1,0.3-0.4,0.5c-0.1,0.1-0.3,0.3-0.4,0.4c-0.1,0.2-0.2,0.4-0.2,0.7c0,0.2,0.1,0.5,0.2,0.7c0.1,0.2,0.3,0.3,0.4,0.4
			c0.2,0.2,0.4,0.3,0.4,0.5v5.6c0,0.2-0.1,0.3-0.4,0.5c-0.1,0.1-0.3,0.3-0.4,0.4c-0.1,0.2-0.2,0.4-0.2,0.7c0,0.2,0.1,0.5,0.2,0.7
			c0.1,0.2,0.3,0.3,0.4,0.4c0.2,0.2,0.4,0.3,0.4,0.5V26l0,0l0,0h10.4h10.4l0,0l0,0v-1.9c0-0.2,0.1-0.3,0.4-0.5
			c0.1-0.1,0.3-0.3,0.4-0.4c0.1-0.2,0.2-0.4,0.2-0.7c0-0.2-0.1-0.5-0.2-0.7C94.4,21.6,94.2,21.5,94.1,21.4"/>
		<path class="st0" d="M91.6,72.7l-40.4-39l-40.4,39c-3.1-6.6-5.2-14.3-5.2-22.9V32.5h91.2v17.3C96.9,58.5,94.8,66.1,91.6,72.7
			 M78.7,76.8c-3.1,3.1-8.2,3.1-11.4,0s-3.1-8.2,0-11.4c3.1-3.1,8.2-3.1,11.4,0C81.9,68.6,81.9,73.6,78.7,76.8 M43.2,51.2
			c0-4.4,3.6-8,8-8s8,3.6,8,8s-3.6,8-8,8S43.2,55.6,43.2,51.2 M76.3,93.1c-10.8,10.1-22.1,15.1-25.1,15.9c-3-0.8-14.3-5.8-25.1-15.9
			c-0.3-0.3-0.5-0.5-0.8-0.8l25.9-27.5l25.9,27.5C76.9,92.6,76.6,92.8,76.3,93.1 M23.7,76.8c-3.1-3.1-3.1-8.2,0-11.4
			c3.1-3.1,8.2-3.1,11.4,0s3.1,8.2,0,11.4S26.9,79.9,23.7,76.8 M96.8,31.2H5.6V4.3h91.2V31.2z M98.1,3H4.3v46.7
			C4.2,70.2,15.6,85.1,25.2,94c10.4,9.7,22.2,15.4,25.9,16.3h0.1h0.1c3.7-0.8,15.4-6.6,25.9-16.3c9.6-8.9,21-23.8,20.9-44.3L98.1,3
			L98.1,3z"/>
		<path class="st0" d="M116.3,100.9c0,4.6,1.3,8.1,6.2,8.1c4.5,0,6.9-3,6.9-8.3v-9.2c0-0.7-0.1-1.3-0.2-1.8
			c-0.2-1.2-1.3-1.6-2.8-1.8V87h7.8v0.9c-1.6,0.2-2.7,0.6-2.8,1.8c-0.1,0.5-0.2,1.1-0.2,1.8v9.3c0,7.1-4.5,9.7-8.8,9.7
			c-7,0-9.2-3.6-9.2-9.5v-9.8c0-3.1,0.1-2.9-2.8-3.3V87h8.9v0.9c-3,0.4-2.8,0.2-2.8,3.3L116.3,100.9L116.3,100.9z"/>
		<path class="st0" d="M152.8,110.3c-4-4.8-8.2-9.8-12.4-14.7v11.3c0,0.5,0.1,1,0.2,1.4c0.1,0.9,1,1.3,2.7,1.4v0.7H137v-0.7
			c1.2-0.1,2.1-0.5,2.2-1.4c0-0.4,0.1-0.8,0.1-1.4v-12c-0.7-0.9-1.5-1.7-3-1.7v-0.7h4.6c3.8,4.6,7.7,9.3,11.5,13.9l0,0V95.9
			c0-0.5-0.1-1-0.1-1.4c-0.1-0.9-1-1.3-2.7-1.4v-0.7h6.3v0.7c-1.2,0.1-2.1,0.5-2.2,1.4c0,0.4-0.1,0.8-0.1,1.4v14.4L152.8,110.3
			L152.8,110.3z"/>
		<path class="st0" d="M165.4,107.1c0,2.4-0.1,2.2,2.2,2.5v0.7h-6.9v-0.7c2.3-0.3,2.2-0.1,2.2-2.5V95.6c0-2.4,0.1-2.2-2.2-2.5v-0.7
			h6.9v0.7c-2.3,0.3-2.2,0.1-2.2,2.5V107.1z"/>
		<path class="st0" d="M178.6,93.1c-1.4,0-2.4,0.4-1.6,2.9c1,3,2.5,7.4,3.8,11.3c1.6-3.9,3.2-7.8,4.8-11.7c0.6-1.6,0-2.4-1.8-2.4
			v-0.7h5.5v0.7c-0.7,0-1.6,0.3-2.1,1.5c-2.1,5.2-4.3,10.4-6.4,15.6h-1.3c-1.5-4.4-3.3-9.3-4.8-13.6c-0.9-2.7-1.7-3.5-3-3.5v-0.7
			h6.9V93.1L178.6,93.1z"/>
		<path class="st0" d="M193.3,109.6c2.3-0.3,2.2-0.1,2.2-2.5V95.6c0-2.4,0.1-2.3-2.2-2.5v-0.7h11.4v4.1H204
			c-0.3-1.9-0.8-3.3-2.6-3.3H198v7.3h2.1c1.6,0,2.3-0.6,2.3-2.2h0.7v5.4h-0.7c0-1.5-0.6-2.4-2.3-2.4H198v5.8c0,2.2,1,2.4,3.3,2.4
			c3.7,0,3.5-1,4.7-3.8h0.7l-0.8,4.6h-12.5v-0.7H193.3z"/>
		<path class="st0" d="M215.6,101.5h2.1c2.2,0,3.2-1.7,3.2-4.5s-1.5-3.8-3.4-3.8h-2L215.6,101.5L215.6,101.5z M211,92.4h7.4
			c2.6,0,5.1,1.4,5.1,4.3c0,2.6-1.6,4.4-3.6,5.2l2.5,3.8c1.3,1.9,2.7,3.6,3.6,4.2v0.3h-2.6c-1.5,0-2.3-2.8-5.4-7.9h-2.4v4.7
			c0,2.4-0.1,2.2,2.2,2.5v0.7H211v-0.7c2.3-0.3,2.2-0.1,2.2-2.5V95.5c0-2.4,0.1-2.2-2.2-2.5V92.4L211,92.4z"/>
		<path class="st0" d="M238.9,96.2c-0.2-1.8-1.2-3.2-3.2-3.2c-1.5,0-2.8,0.8-2.8,2.6c0,1.8,1.8,2.9,4.3,4.8c2.7,2,3.6,3.3,3.6,5.4
			c0,3-3.1,4.7-6.2,4.7c-1.6,0-3-0.3-4.4-0.8c-0.1,0-0.2-0.1-0.2-0.4v-3.7h0.7c0.3,2.8,2.1,4,4.1,4c1.8,0,3.3-1.4,3.3-3.2
			c0-1.6-0.9-3-4.7-5.5c-1.4-0.9-3.1-1.9-3.1-4.7c0-2.3,2.5-4.1,5.5-4.1c1.1,0,2.5,0.1,3.6,0.5c0.2,0,0.2,0.1,0.2,0.3v3.4
			L238.9,96.2L238.9,96.2z"/>
		<path class="st0" d="M250.8,107.1c0,2.4-0.1,2.2,2.2,2.5v0.7h-6.9v-0.7c2.3-0.3,2.2-0.1,2.2-2.5V95.6c0-2.4,0.1-2.2-2.2-2.5v-0.7
			h6.9v0.7c-2.3,0.3-2.2,0.1-2.2,2.5V107.1z"/>
		<path class="st0" d="M266,107.1c0,2.4-0.1,2.2,2.2,2.5v0.7h-6.9v-0.7c2.3-0.3,2.2-0.1,2.2-2.5V93.3h-2.3c-2.2,0-2.7,1.4-3.6,3.1
			H257l0.7-3.9h14.1l0.7,3.9h-0.6c-0.8-1.7-1.3-3.1-3.6-3.1H266V107.1z"/>
		<path class="st0" d="M279.9,109.6c2.3-0.3,2.2-0.1,2.2-2.5v-3.9l-3.9-7.8c-0.8-1.7-1.5-2.3-2.7-2.3v-0.7h6.5v0.7
			c-1.9,0-1.8,1-1.1,2.3l3.1,6.4l3.5-6.4c0.9-1.6,0-2.3-1.5-2.3v-0.7h5.3v0.7c-0.7,0-1.4,0.3-2.1,1.5l-4.3,7.7
			c-0.3,0.5-0.3,1.2-0.3,1.9v2.9c0,2.4-0.1,2.2,2.2,2.5v0.7h-6.9L279.9,109.6L279.9,109.6L279.9,109.6z"/>
		<path class="st0" d="M315.8,97.7c0-3.4-2.1-3.6-2.6-3.6c-3.6,0-5.9,6.4-5.9,10.7c0,1.7,0.3,4.8,2.7,4.8
			C313.8,109.6,315.8,103.5,315.8,97.7 M304.2,104.1c0-4.3,3.7-10.8,9.2-10.8c4.4,0,5.4,3,5.4,6c0,3.6-2.9,11.4-9.2,11.4
			C305.4,110.6,304.2,107.3,304.2,104.1"/>
		<path class="st0" d="M334.2,94.4l-0.8,0.7h-4.3c-1.6,7.9-4.3,18.3-6.1,23.4h-1.5l4.7-23.4H323l0.3-1.4h3.1c1.7-7,7.6-7.8,8.9-7.8
			c0.8,0,2.4,0.1,2.9,0.6l-0.4,2.2l-0.8,0.4c-0.5-0.9-1.5-1.9-2.9-1.9c-2,0-3.5,1.4-4.3,4.9l-0.4,1.6h4.9L334.2,94.4z"/>
		<path class="st0" d="M354,106.1c0,3.1-0.1,2.9,2.8,3.3v0.9H348v-0.9c3-0.4,2.8-0.2,2.8-3.3V91.2c0-3.1,0.1-2.9-2.8-3.3V87h8.6
			c5.5,0,8.2,2.2,8.2,6.1c0,4.8-4.3,7.3-9.4,7v-0.6c4.1,0.1,6-2.4,6-6c0-3.7-1.8-5.4-5.5-5.4h-2L354,106.1L354,106.1L354,106.1z"/>
		<path class="st0" d="M369.4,109.6c2.3-0.3,2.2-0.1,2.2-2.5V95.6c0-2.4,0.1-2.3-2.2-2.5v-0.7h11.4v4.1h-0.6
			c-0.3-1.9-0.8-3.3-2.6-3.3h-3.5v7.3h2.1c1.6,0,2.3-0.6,2.3-2.2h0.7v5.4h-0.7c0-1.5-0.6-2.4-2.3-2.4h-2.1v5.8c0,2.2,1,2.4,3.3,2.4
			c3.7,0,3.5-1,4.7-3.8h0.7l-0.8,4.6h-12.5L369.4,109.6L369.4,109.6L369.4,109.6z"/>
		<path class="st0" d="M402.5,110.3c-4-4.8-8.3-9.8-12.4-14.7v11.3c0,0.5,0.1,1,0.1,1.4c0.1,0.9,1,1.3,2.7,1.4v0.7h-6.2v-0.7
			c1.2-0.1,2.1-0.5,2.2-1.4c0.1-0.4,0.2-0.8,0.2-1.4v-12c-0.7-0.9-1.5-1.7-3-1.7v-0.7h4.6c3.8,4.6,7.8,9.3,11.5,13.9l0,0V95.9
			c0-0.5-0.1-1-0.1-1.4c-0.1-0.9-1-1.3-2.7-1.4v-0.7h6.2v0.7c-1.2,0.1-2.1,0.5-2.2,1.4c0,0.4-0.2,0.8-0.2,1.4v14.4L402.5,110.3
			L402.5,110.3z"/>
		<path class="st0" d="M425.8,110.3c-4-4.8-8.3-9.8-12.4-14.7v11.3c0,0.5,0.1,1,0.2,1.4c0.1,0.9,1,1.3,2.7,1.4v0.7h-6.2v-0.7
			c1.2-0.1,2.1-0.5,2.2-1.4c0-0.4,0.2-0.8,0.2-1.4v-12c-0.7-0.9-1.5-1.7-3-1.7v-0.7h4.6c3.8,4.6,7.8,9.3,11.5,13.9l0,0V95.9
			c0-0.5-0.1-1-0.1-1.4c-0.1-0.9-1-1.3-2.7-1.4v-0.7h6.3v0.7c-1.2,0.1-2.1,0.5-2.2,1.4c-0.1,0.4-0.2,0.8-0.2,1.4v14.4L425.8,110.3
			L425.8,110.3z"/>
		<path class="st0" d="M442.3,96.2c-0.2-1.8-1.2-3.2-3.2-3.2c-1.5,0-2.8,0.8-2.8,2.6c0,1.8,1.8,2.9,4.3,4.8c2.7,2,3.6,3.3,3.6,5.4
			c0,3-3.1,4.7-6.2,4.7c-1.6,0-3-0.3-4.4-0.8c-0.1,0-0.2-0.1-0.2-0.4v-3.7h0.7c0.3,2.8,2.1,4,4.1,4c1.8,0,3.3-1.4,3.3-3.2
			c0-1.6-0.9-3-4.7-5.5c-1.4-0.9-3.1-1.9-3.1-4.7c0-2.3,2.5-4.1,5.5-4.1c1.1,0,2.5,0.1,3.5,0.5c0.2,0,0.2,0.1,0.2,0.3v3.4
			L442.3,96.2L442.3,96.2z"/>
		<path class="st0" d="M452.6,109.6c2.3-0.3,2.2-0.1,2.2-2.5v-3.9l-3.9-7.8c-0.8-1.7-1.6-2.3-2.7-2.3v-0.7h6.5v0.7
			c-1.9,0-1.7,1-1.1,2.3l3.1,6.4l3.5-6.4c0.9-1.6,0.1-2.3-1.4-2.3v-0.7h5.2v0.7c-0.7,0-1.4,0.3-2.1,1.5l-4.3,7.7
			c-0.3,0.5-0.3,1.2-0.3,1.9v2.9c0,2.4-0.1,2.2,2.2,2.5v0.7h-6.9V109.6L452.6,109.6z"/>
		<path class="st0" d="M468.3,109.6c2.3-0.3,2.2-0.1,2.2-2.5V95.6c0-2.4,0.1-2.3-2.2-2.5v-0.7h6.9v0.7c-2.3,0.3-2.2,0.2-2.2,2.5
			v11.9c0,1.8,1,2,3.3,2c3.7,0,3.5-1,4.7-3.8h0.6l-0.8,4.6h-12.5V109.6L468.3,109.6z"/>
		<path class="st0" d="M489,93.1c-1.4,0-2.4,0.4-1.6,2.9c1,3,2.5,7.4,3.8,11.3c1.6-3.9,3.2-7.8,4.8-11.7c0.6-1.6,0-2.4-1.8-2.4v-0.7
			h5.5v0.7c-0.7,0-1.6,0.3-2.1,1.5c-2.1,5.2-4.3,10.4-6.5,15.6h-1.3c-1.5-4.4-3.3-9.3-4.8-13.6c-1-2.7-1.7-3.5-3-3.5v-0.7h6.9
			L489,93.1L489,93.1z"/>
		<path class="st0" d="M510.6,103.4l-2.7-8.3l0,0l-3,8.3H510.6z M504.4,104.3l-1.2,3.4c-0.3,1,0.2,1.8,1.3,1.8v0.7h-4.6v-0.7
			c0.7,0,1.4-0.4,1.8-1.3c1.1-2.3,4.1-10.6,6.2-16.2h1.4c1.7,5.1,4.3,13,5.2,15.2c0.6,1.4,1,2.2,2.1,2.2v0.7h-5.9v-0.7
			c1.6,0,1.8-0.8,1.3-2l-1.1-3.3L504.4,104.3L504.4,104.3z"/>
		<path class="st0" d="M535.8,110.3c-4.1-4.8-8.3-9.8-12.4-14.7v11.3c0,0.5,0.1,1,0.2,1.4c0.1,0.9,1,1.3,2.7,1.4v0.7H520v-0.7
			c1.2-0.1,2.1-0.5,2.2-1.4c0.1-0.4,0.2-0.8,0.2-1.4v-12c-0.7-0.9-1.5-1.7-3-1.7v-0.7h4.6c3.8,4.6,7.7,9.3,11.5,13.9l0,0V95.9
			c0-0.5-0.1-1-0.2-1.4c-0.1-0.9-1-1.3-2.7-1.4v-0.7h6.3v0.7c-1.2,0.1-2.1,0.5-2.2,1.4c0,0.4-0.2,0.8-0.2,1.4v14.4L535.8,110.3
			L535.8,110.3z"/>
		<path class="st0" d="M547.8,107.1c0,2.4-0.1,2.2,2.2,2.5v0.7h-6.9v-0.7c2.3-0.3,2.2-0.1,2.2-2.5V95.6c0-2.4,0.1-2.2-2.2-2.5v-0.7
			h6.9v0.7c-2.3,0.3-2.2,0.1-2.2,2.5V107.1z"/>
		<path class="st0" d="M564.6,103.4l-2.7-8.3l0,0l-3,8.3H564.6z M558.5,104.3l-1.2,3.4c-0.3,1,0.2,1.8,1.3,1.8v0.7H554v-0.7
			c0.7,0,1.4-0.4,1.8-1.3c1.1-2.3,4.1-10.6,6.2-16.2h1.4c1.7,5.1,4.3,13,5.2,15.2c0.6,1.4,1,2.2,2.1,2.2v0.7h-5.9v-0.7
			c1.6,0,1.8-0.8,1.3-2l-1.1-3.3L558.5,104.3L558.5,104.3L558.5,104.3z"/>
	</g>
	<g>
		<path class="st0" d="M110.2,3h21.5c7,0,12.6,1.6,16.7,4.7c4.1,3.1,6.2,7.1,6.2,12.1c0,4.9-1.8,8.7-5.4,11.3s-8.7,4-15.4,4
			c-2.6,0-5.6-0.2-9.1-0.6V51c0,3.6,0.5,6,1.4,7.4c1,1.3,2.7,2,5.3,2v1.7h-21.2v-1.7c2.6,0,4.3-0.7,5.3-2.1s1.4-3.8,1.4-7v-37
			c0-3.5-0.5-6-1.4-7.4c-1-1.4-2.7-2.1-5.3-2.1L110.2,3L110.2,3z M132,5.3h-7.3v26.4c2,0.7,4.4,1,7.3,1c4.4,0,7.9-1.1,10.5-3.4
			s3.9-5.4,3.9-9.4c0-4.3-1.3-7.8-3.8-10.5C140,6.7,136.5,5.3,132,5.3z"/>
		<path class="st0" d="M183.1,52.7v2.7c-2.2,2.8-4.5,4.8-6.8,6s-5,1.8-8.3,1.8c-5.7,0-10.4-1.8-14.1-5.4s-5.6-8.1-5.6-13.6
			s1.8-10.2,5.3-14s7.9-5.7,13-5.7c4.2,0,7.9,1.4,11.1,4.3c3.1,2.9,4.7,6.3,4.7,10.2v0.8h-26.8v0.5c0,4,0.6,7.5,1.8,10.5
			c1.2,3,3,5.3,5.4,7s4.8,2.5,7.3,2.5c2.4,0,4.4-0.5,6.1-1.5C178.1,57.8,180.3,55.8,183.1,52.7z M155.7,38h19.9v-0.7
			c0-3.3-0.9-5.8-2.8-7.8c-1.9-1.9-4.2-2.9-7-2.9c-3,0-5.3,1-7.1,3C156.9,31.8,155.9,34.5,155.7,38z"/>
		<path class="st0" d="M196.1,24.6v7.3c4.3-4.9,8.6-7.3,13.2-7.3c3.5,0,6.5,1.2,8.8,3.6c2.4,2.4,3.5,5.6,3.5,9.5v16.5
			c0,2.5,0.4,4.2,1.3,5s2.5,1.2,4.9,1.2v1.7h-19.5v-1.7c2.4,0,4.1-0.3,5-0.9s1.3-1.8,1.3-3.6V36.8c0-2.5-0.8-4.6-2.3-6.1
			s-3.5-2.3-5.9-2.3c-3.4,0-6.9,2.4-10.4,7.1v17.8c0,3,0.4,5,1.2,5.8s2.4,1.2,4.9,1.2V62H183v-1.7c2.8,0,4.5-0.5,5.1-1.3
			c0.6-0.9,1-2.8,1-5.7V32.7c0-2.2-0.4-3.6-1.2-4.3s-2.4-1-4.9-1v-1.7l11.4-1.1H196.1L196.1,24.6z"/>
		<path class="st0" d="M240.4,24.6v7.3c4.3-4.9,8.6-7.3,13.2-7.3c3.5,0,6.5,1.2,8.8,3.6c2.4,2.4,3.5,5.6,3.5,9.5v16.5
			c0,2.5,0.4,4.2,1.3,5s2.5,1.2,4.9,1.2v1.7h-19.5v-1.7c2.4,0,4.1-0.3,5-0.9s1.3-1.8,1.3-3.6V36.8c0-2.5-0.8-4.6-2.3-6.1
			s-3.5-2.3-5.9-2.3c-3.4,0-6.9,2.4-10.4,7.1v17.8c0,3,0.4,5,1.2,5.8s2.4,1.2,4.9,1.2V62h-19.2v-1.7c2.8,0,4.5-0.5,5.1-1.3
			c0.6-0.9,1-2.8,1-5.7V32.7c0-2.2-0.4-3.6-1.2-4.3s-2.4-1-4.9-1v-1.7l11.4-1.1H240.4L240.4,24.6z"/>
		<path class="st0" d="M324.6,49.2h1.8l-3.6,12.9H280v-1.7c2.4,0,4.1-0.8,5.2-2.3c1-1.5,1.5-4,1.5-7.6V13.4c0-3.2-0.5-5.4-1.4-6.7
			c-1-1.3-2.7-1.9-5.3-1.9V3h21.1v1.7c-2.4,0-4,0.7-5,2.2s-1.5,3.8-1.5,7.1v39.4c0,2.2,0.5,3.7,1.4,4.5s2.7,1.2,5.3,1.2H313
			c3.6,0,6.1-0.6,7.6-1.9C322,56,323.4,53.3,324.6,49.2z"/>
		<path class="st0" d="M338.7,24.6h1.8v30.7c0,2,0.4,3.4,1.3,4c0.9,0.7,2.5,1,4.8,1V62h-20v-1.7c2.9,0,4.8-0.3,5.6-1
			c0.8-0.7,1.3-2,1.3-4.1V32.7c0-2.2-0.4-3.7-1.2-4.4c-0.8-0.7-2.7-1.1-5.7-1.1v-1.7L338.7,24.6z M337.1,5.7c1.2,0,2.3,0.4,3.1,1.3
			c0.9,0.9,1.3,1.9,1.3,3.1s-0.4,2.3-1.3,3.2c-0.9,0.9-1.9,1.3-3.1,1.3s-2.3-0.4-3.2-1.3c-0.9-0.9-1.4-2-1.4-3.2s0.4-2.3,1.3-3.1
			C334.8,6.1,335.9,5.7,337.1,5.7z"/>
		<path class="st0" d="M355.4-2.6h1.8V30c1.5-1.7,3.4-3,5.6-4s4.4-1.5,6.7-1.5c4.7,0,8.7,1.7,12,5.1s4.9,7.6,4.9,12.6
			c0,5.9-2.2,10.7-6.6,14.4c-4.4,3.8-10.5,5.6-18.3,5.6c-3,0-6.8-0.4-11.3-1.1V6.4c0-2.9-0.4-4.6-1.1-5.3s-2.5-1-5.4-1v-1.7
			L355.4-2.6z M357.2,32.7v20.8c0,2.7,0.5,4.6,1.4,5.6s2.5,1.5,4.8,1.5c4.7,0,8.5-1.5,11.2-4.6c2.8-3,4.1-7.3,4.1-12.8
			c0-4.6-1.2-8.4-3.6-11.3s-5.2-4.4-8.6-4.4C363.1,27.5,360,29.2,357.2,32.7z"/>
		<path class="st0" d="M399.9,24.6v7.9c3.4-2.9,6-5,7.8-6.1c1.9-1.2,3.4-1.8,4.7-1.8c2.3,0,4.5,1,6.7,2.9l-2.8,6.5
			c-3.9-2.1-6.8-3.2-8.7-3.2c-2.1,0-4.7,1.5-7.8,4.4v20.1c0,2,0.4,3.4,1.3,4.1c0.8,0.7,2.5,1.1,4.8,1.1v1.7h-19.3v-1.7
			c2.5,0,4.2-0.4,5-1.2c0.8-0.8,1.2-2.7,1.2-5.8V33.6c0-2.5-0.4-4.1-1.3-4.9c-0.9-0.7-2.9-1.1-6.3-1.1v-1.7l12.8-1.1L399.9,24.6
			L399.9,24.6z"/>
		<path class="st0" d="M430,63.2c-2.8,0-5.3-1-7.3-2.8c-2-1.9-3.1-4.2-3.1-6.9c0-2.5,0.9-4.6,2.6-6.3s5.3-3.2,10.7-4.8
			c3.4-0.9,5.7-1.7,6.8-2.4v-2.7c0-2.6-0.7-4.8-2.2-6.4s-3.5-2.4-5.9-2.4c-2.3,0-4.2,0.7-6,2.1c-1.7,1.4-3,3.3-3.7,5.7l-1.9-0.5
			c0.7-3.4,2.3-6.1,4.8-8.1s5.4-3.1,8.7-3.1c3.9,0,7.1,1.2,9.5,3.5c2.4,2.4,3.7,5.6,3.7,9.8v15.6c0,2.2,0.1,3.7,0.4,4.5
			c0.3,0.8,0.8,1.2,1.6,1.2c0.5,0,1-0.2,1.3-0.7s0.7-1.4,1.2-2.8h1.8c-0.2,2.3-0.9,4.1-2.1,5.4s-2.9,2-5,2c-3,0-5-1.7-6.2-5.2
			c-1.8,2-3.4,3.3-4.8,4.1S431.9,63.2,430,63.2z M439.8,54.6V42.2c-1,0.4-2.5,1-4.5,1.7c-3.7,1.2-6,2.5-7,3.7s-1.5,2.9-1.5,5
			c0,1.8,0.5,3.4,1.6,4.7c1.1,1.3,2.4,2,3.9,2c1.4,0,2.8-0.4,4.3-1.3C438.1,57,439.2,56,439.8,54.6z"/>
		<path class="st0" d="M466.8,24.6v7.9c3.3-2.9,6-5,7.8-6.1c1.9-1.2,3.4-1.8,4.7-1.8c2.3,0,4.5,1,6.7,2.9l-2.8,6.5
			c-3.9-2.1-6.8-3.2-8.7-3.2c-2.1,0-4.7,1.5-7.8,4.4v20.1c0,2,0.4,3.4,1.3,4.1c0.8,0.7,2.5,1.1,4.8,1.1v1.7h-19.3v-1.7
			c2.5,0,4.2-0.4,5-1.2c0.8-0.8,1.2-2.7,1.2-5.8V33.6c0-2.5-0.4-4.1-1.3-4.9c-0.9-0.7-2.9-1.1-6.3-1.1v-1.7l12.8-1.1L466.8,24.6
			L466.8,24.6z"/>
		<path class="st0" d="M500.1,24.6h1.8v30.7c0,2,0.4,3.4,1.3,4c0.9,0.7,2.5,1,4.8,1V62h-20v-1.7c2.9,0,4.8-0.3,5.6-1s1.3-2,1.3-4.1
			V32.7c0-2.2-0.4-3.7-1.2-4.4c-0.8-0.7-2.7-1.1-5.7-1.1v-1.7L500.1,24.6z M498.5,5.7c1.2,0,2.3,0.4,3.1,1.3
			c0.8,0.9,1.3,1.9,1.3,3.1s-0.4,2.3-1.3,3.2c-0.9,0.9-1.9,1.3-3.1,1.3c-1.2,0-2.3-0.4-3.2-1.3s-1.4-2-1.4-3.2s0.4-2.3,1.3-3.1
			C496.1,6.1,497.2,5.7,498.5,5.7z"/>
		<path class="st0" d="M542.3,52.7v2.7c-2.2,2.8-4.5,4.8-6.8,6s-5,1.8-8.3,1.8c-5.7,0-10.4-1.8-14.1-5.4c-3.7-3.6-5.6-8.1-5.6-13.6
			s1.8-10.2,5.3-14s7.9-5.7,13-5.7c4.2,0,7.9,1.4,11.1,4.3c3.2,2.9,4.7,6.3,4.7,10.2v0.8h-26.8v0.5c0,4,0.6,7.5,1.8,10.5
			s3,5.3,5.4,7s4.8,2.5,7.3,2.5c2.4,0,4.4-0.5,6.1-1.5C537.3,57.8,539.5,55.8,542.3,52.7z M514.9,38h19.9v-0.7
			c0-3.3-0.9-5.8-2.8-7.8c-1.9-1.9-4.2-2.9-7-2.9c-3,0-5.3,1-7.1,3C516.1,31.8,515.1,34.5,514.9,38z"/>
		<path class="st0" d="M569.6,24.6v11.2h-2.1c-0.3-2.8-1.3-5-3-6.7s-3.7-2.5-6.1-2.5c-1.8,0-3.3,0.5-4.4,1.4s-1.7,2.1-1.7,3.6
			s0.5,2.8,1.5,3.9s3.2,2.5,6.7,4c4.4,2,7.3,3.9,8.8,5.8c1.4,1.8,2.1,4.1,2.1,6.6c0,3-1.1,5.7-3.4,7.9c-2.3,2.2-5,3.3-8.1,3.3
			c-1.6,0-3.7-0.6-6.4-1.8c-1.4-0.6-2.4-1-2.9-1c-0.6,0-1.2,0.2-1.6,0.7c-0.4,0.5-0.7,1.1-0.8,1.8h-1.8V50.4h1.8
			c0.6,3.3,2,5.9,4.2,7.8s4.7,2.9,7.5,2.9c1.8,0,3.3-0.6,4.5-1.8s1.8-2.7,1.8-4.5c0-1.7-0.6-3.2-1.7-4.5c-1.1-1.3-3.6-2.7-7.3-4.4
			c-4.2-1.9-7-3.6-8.3-5.2s-2-3.6-2-5.8c0-2.9,1.1-5.3,3.3-7.4s4.8-3.1,7.8-3.1c1.4,0,2.9,0.3,4.6,1c1.2,0.5,2.1,0.7,2.9,0.7
			c1,0,1.7-0.6,2.2-1.7L569.6,24.6L569.6,24.6z"/>
	</g>
</g>
</svg>
